<svg xmlns="http://www.w3.org/2000/svg" xmlns:xlink="http://www.w3.org/1999/xlink" width="439" height="762" viewBox="0 0 439 762">
    <defs>
        <filter id="a" width="107.2%" height="106.1%" x="-3.6%" y="-3.1%" filterUnits="objectBoundingBox">
            <feOffset dy="6" in="SourceAlpha" result="shadowOffsetOuter1"/>
            <feGaussianBlur in="shadowOffsetOuter1" result="shadowBlurOuter1" stdDeviation="3"/>
            <feColorMatrix in="shadowBlurOuter1" result="shadowMatrixOuter1" values="0 0 0 0 0.089305933 0 0 0 0 0.089305933 0 0 0 0 0.089305933 0 0 0 0.15862653 0"/>
            <feMerge>
                <feMergeNode in="shadowMatrixOuter1"/>
                <feMergeNode in="SourceGraphic"/>
            </feMerge>
        </filter>
        <rect id="b" width="642.701" height="750" rx="260.5"/>
        <radialGradient id="d" cx="52.519%" r="67.974%" fx="52.519%" fy="50%" gradientTransform="matrix(1 0 0 .8593 0 .07)">
            <stop offset="0%" stop-color="#398840"/>
            <stop offset="54.503%" stop-color="#46AF23"/>
            <stop offset="100%" stop-color="#256E37"/>
        </radialGradient>
        <radialGradient id="e" cy="49.998%" r="73.086%" fx="50%" fy="49.998%" gradientTransform="matrix(1 0 0 .76312 0 .118)">
            <stop offset="0%" stop-color="#398840"/>
            <stop offset="44.286%" stop-color="#46AF23"/>
            <stop offset="100%" stop-color="#256E37"/>
        </radialGradient>
        <radialGradient id="f" cx="49.999%" cy="49.989%" r="101.552%" fx="49.999%" fy="49.989%" gradientTransform="matrix(1 0 0 .94007 0 .03)">
            <stop offset="0%" stop-color="#44D051"/>
            <stop offset="58.35%" stop-color="#22AE48"/>
            <stop offset="100%" stop-color="#29823F"/>
        </radialGradient>
        <radialGradient id="g" cx="49.999%" cy="49.989%" r="108.95%" fx="49.999%" fy="49.989%" gradientTransform="matrix(1 0 0 .94007 0 .03)">
            <stop offset="0%" stop-color="#44D051"/>
            <stop offset="58.35%" stop-color="#22AE48"/>
            <stop offset="100%" stop-color="#29823F"/>
        </radialGradient>
    </defs>
    <g fill="none" fill-rule="evenodd" filter="url(#a)" transform="translate(6)">
        <mask id="c" fill="#fff">
            <use xlink:href="#b"/>
        </mask>
        <rect width="642.701" height="750" rx="260.5"/>
        <g fill-rule="nonzero" mask="url(#c)">
            <path fill="url(#d)" d="M705.473 476.028c0 226.468-157.731 410.045-352.336 410.045C158.535 886.073.789 702.496.789 476.028.789 249.57 158.535 66 353.137 66c194.605 0 352.336 183.571 352.336 410.028z" transform="translate(-37.321 -107.606)"/>
            <g fill="#50B450" opacity=".4">
                <path d="M24.894-107.606H54.36v951H24.894zM86.262-107.606h29.466v951H86.262zM147.648-107.606h29.466v951h-29.466zM209.03-107.606h29.451v951h-29.45zM270.428-107.606h29.436v951h-29.436zM331.796-107.606h29.451v951h-29.45zM422.618-107.606v951h-29.436l-.015-951z"/>
            </g>
            <path fill="url(#e)" d="M354.355 178.76c-198.062 0-226.859 183.756-226.859 230.591v133.386c0 46.838 28.797 230.576 226.86 230.576 198.077 0 226.858-183.738 226.858-230.576V409.35c.003-46.838-28.778-230.591-226.859-230.591z" opacity=".4" transform="translate(-37.321 -107.606)"/>
            <path fill="#FFF" d="M317.027 666.846c-84.954 0-148.424-33.06-188.652-98.268C97.31 518.26 89.038 460.983 89.038 435.076V301.792c0-25.914 8.272-83.194 39.337-133.503 40.228-65.208 103.698-98.274 188.652-98.274s148.424 33.07 188.666 98.274c31.05 50.31 39.337 107.59 39.337 133.503v133.284c0 25.907-8.286 83.184-39.337 133.502-40.242 65.208-103.712 98.268-188.666 98.268zm0-594.105c-84.037 0-146.778 32.65-186.523 97.044-30.717 49.783-38.902 106.396-38.902 132.007v133.284c0 25.61 8.185 82.224 38.902 132.007 39.745 64.394 102.489 97.044 186.523 97.044 84.036 0 146.777-32.65 186.525-97.044 30.717-49.783 38.903-106.396 38.903-132.007V301.792c0-25.611-8.186-82.224-38.903-132.007C463.807 105.39 401.063 72.74 317.027 72.74z"/>
            <path fill="#E7CC39" d="M288.037 293.257h59.13v152.625h-59.13z"/>
            <path fill="#FFF" d="M312.13 381.538c0-.942.698-1.697 1.597-1.697.814 0 1.512.758 1.512 1.697 0 .948-.698 1.7-1.512 1.7-.902 0-1.597-.749-1.597-1.7zm-4.928 1.428c-.885-.131-1.526-.948-1.452-1.9.074-.879.829-1.55 1.729-1.496.873.078 1.526.889 1.467 1.828-.086.888-.784 1.568-1.598 1.568h-.146zm11.23-1.565c-.074-.942.567-1.75 1.467-1.828.829-.122 1.657.617 1.714 1.497.074.951-.567 1.768-1.467 1.83h-.131a1.576 1.576 0 0 1-1.583-1.5zm-17.65.686v-.069c-.9-.14-1.468-1.02-1.337-1.9.175-.942 1.004-1.55 1.844-1.419.885.14 1.452 1.089 1.337 1.968-.131.811-.829 1.42-1.598 1.42h-.247zm23.955-1.42c-.116-.957.452-1.83 1.337-1.968.828-.208 1.657.48 1.859 1.36.13.942-.451 1.822-1.336 1.962-.072 0-.202.069-.262.069-.77-.003-1.467-.612-1.598-1.423zm-30.332-.068c-.829-.272-1.337-1.151-1.162-2.108.262-.874 1.162-1.429 1.99-1.22.829.271 1.337 1.22 1.135 2.09-.175.758-.814 1.306-1.527 1.306-.116 0-.32-.068-.436-.068zm36.578-1.297c-.19-.871.262-1.822 1.147-2.03.843-.272 1.713.27 1.975 1.156.19.933-.321 1.822-1.132 2.108-.145.063-.276.063-.451.063-.695 0-1.349-.48-1.539-1.297zm-42.753-.811c-.84-.263-1.277-1.274-.96-2.162.307-.88 1.207-1.357 2.035-1.02.829.331 1.262 1.288.96 2.168-.262.68-.9 1.157-1.527 1.157-.202.003-.333-.066-.508-.143zm48.886-1.089a1.675 1.675 0 0 1 .945-2.152 1.605 1.605 0 0 1 2.046 1.004c.306.895-.13 1.906-.96 2.177-.19.063-.376.137-.507.137-.71 0-1.277-.408-1.524-1.166zm-54.885-1.541c-.829-.409-1.147-1.428-.755-2.24a1.514 1.514 0 0 1 2.091-.81c.754.402 1.147 1.413.754 2.23-.246.602-.885 1.02-1.467 1.02-.243 0-.433-.069-.623-.2zm60.796-.889c-.378-.81-.06-1.83.769-2.23.769-.418 1.728-.069 2.106.81.377.812.074 1.823-.77 2.231a1.16 1.16 0 0 1-.638.209c-.639 0-1.206-.411-1.467-1.02zm-66.59-2.302a1.724 1.724 0 0 1-.583-2.299c.451-.81 1.408-1.079 2.165-.617.77.48 1.016 1.497.582 2.308-.246.54-.828.88-1.336.88-.321 0-.582-.131-.829-.272zm72.271-.676c-.451-.817-.19-1.822.567-2.3.755-.48 1.788-.208 2.237.609.377.81.13 1.83-.639 2.299a1.613 1.613 0 0 1-.754.209c-.597 0-1.108-.278-1.41-.817zm-77.763-2.973c-.698-.609-.885-1.628-.378-2.377a1.507 1.507 0 0 1 2.225-.402c.713.462.9 1.55.392 2.299-.32.477-.829.748-1.351.748-.31.003-.57-.074-.888-.268zm83.24-.546c-.508-.748-.377-1.828.377-2.37a1.494 1.494 0 0 1 2.18.408c.493.811.377 1.822-.392 2.362a1.4 1.4 0 0 1-.885.34c-.51 0-1.019-.269-1.28-.74zm-88.396-3.721v.069c-.639-.618-.77-1.706-.19-2.44.567-.68 1.583-.825 2.236-.217.683.617.754 1.7.247 2.376-.321.409-.755.611-1.266.611a1.596 1.596 0 0 1-1.027-.4zm93.495-.277c-.582-.74-.508-1.769.202-2.377.624-.602 1.658-.54 2.222.209.567.68.508 1.76-.187 2.376-.321.272-.654.409-1.019.409-.448 0-.9-.209-1.218-.617zm-98.277-4.336a1.78 1.78 0 0 1 0-2.43c.639-.617 1.654-.617 2.222 0a1.78 1.78 0 0 1 0 2.43c-.247.35-.698.48-1.076.48-.448-.003-.825-.134-1.146-.48zm103.056-.131c-.638-.608-.638-1.76 0-2.376.639-.671 1.598-.671 2.236 0 .639.617.639 1.7 0 2.376-.317.34-.697.54-1.16.54-.363 0-.758-.2-1.076-.54zm-107.458-4.947c-.567-.733-.507-1.821.202-2.43.698-.548 1.643-.47 2.225.2.582.748.508 1.828-.205 2.44-.247.27-.624.402-1.016.402-.451-.003-.87-.194-1.206-.612zm111.86.078c-.698-.617-.77-1.69-.187-2.377.507-.739 1.523-.81 2.221-.208.639.548.77 1.637.19 2.376-.32.403-.754.611-1.206.611-.38-.003-.757-.14-1.018-.402zm-115.795-5.564c-.523-.733-.332-1.83.363-2.361.712-.54 1.743-.34 2.236.408.508.802.32 1.822-.377 2.37-.321.2-.639.331-.96.331-.507 0-.959-.27-1.262-.748zm119.745.283c-.713-.548-.9-1.574-.392-2.385.508-.742 1.538-.942 2.236-.403.698.55.888 1.628.392 2.37-.333.478-.843.75-1.292.75-.306.002-.624-.138-.944-.332zm-123.261-6.103a1.716 1.716 0 0 1 .582-2.3c.754-.48 1.714-.208 2.165.61.437.81.175 1.827-.582 2.298a1.17 1.17 0 0 1-.755.271c-.582 0-1.164-.34-1.41-.88zm126.822.48c-.755-.418-1.016-1.491-.568-2.3.378-.816 1.411-1.087 2.166-.61.769.47 1.03 1.49.567 2.299-.306.54-.814.88-1.396.88-.247 0-.508-.07-.77-.27zm-129.872-6.575c-.333-.88 0-1.9.813-2.23.77-.403 1.729-.078 2.106.817.377.81 0 1.822-.754 2.23-.262.14-.452.14-.713.14-.567 0-1.147-.34-1.452-.957zm132.937.686c-.829-.409-1.147-1.428-.755-2.24.318-.879 1.263-1.219 2.106-.816.755.34 1.132 1.35.755 2.23-.262.617-.83.957-1.468.957-.19 0-.451-.068-.638-.131zm-135.438-7.055c-.318-.87.13-1.822.96-2.167.828-.331 1.787.146 2.048 1.02.306.879-.13 1.83-.959 2.167-.13.069-.333.069-.508.069a1.667 1.667 0 0 1-1.541-1.089zm137.995.88c-.829-.331-1.28-1.282-.96-2.23.318-.817 1.206-1.283 2.035-1.011.829.34 1.277 1.282.96 2.23-.262.68-.83 1.08-1.527 1.08a1.32 1.32 0 0 1-.508-.07zm-139.91-7.44c-.247-.948.26-1.827 1.09-2.099.884-.271 1.728.34 1.974 1.22.262.88-.246 1.83-1.146 2.03-.116.069-.247.069-.377.069-.698 0-1.34-.477-1.542-1.22zm141.941 1.014c-.828-.208-1.336-1.15-1.146-2.036.247-.934 1.146-1.491 1.975-1.205.829.2 1.337 1.151 1.146 2.03-.19.812-.828 1.289-1.597 1.289-.113-.003-.247-.003-.378-.078zm-143.338-7.788c-.19-.88.377-1.76 1.277-1.959.829-.14 1.658.462 1.845 1.42.13.879-.437 1.759-1.277 1.899-.116.062-.247.062-.306.062-.77-.003-1.408-.596-1.539-1.422zm144.865 1.22c-.888-.132-1.467-1.011-1.336-1.968.19-.88 1.015-1.482 1.844-1.351.9.14 1.482 1.02 1.351 1.959-.205.81-.828 1.36-1.598 1.36h-.261zm-145.75-8.048c-.074-.966.567-1.768 1.452-1.837.83-.062 1.67.611 1.729 1.569.06.942-.567 1.753-1.467 1.821h-.13c-.815-.003-1.527-.673-1.584-1.553zm146.71 1.42c-.886-.138-1.527-.958-1.468-1.9.074-.889.844-1.56 1.714-1.491.9.069 1.538.88 1.482 1.83-.074.871-.77 1.56-1.598 1.56h-.13zm-146.971-8.272c-.071-.942.713-1.76 1.526-1.76.9 0 1.598.818 1.598 1.7 0 .949-.698 1.75-1.523 1.75-.891-.002-1.601-.804-1.601-1.69zm145.765-.188v-.083-.263c0-.948.697-1.7 1.583-1.7.9 0 1.612.75 1.612 1.7v.349c0 .933-.713 1.682-1.612 1.682-.886 0-1.583-.749-1.583-1.685zm-144.096-4.89c-.84-.062-1.539-.874-1.408-1.822.06-.948.829-1.628 1.714-1.56.828.078 1.523.88 1.408 1.829-.075.88-.77 1.55-1.598 1.55.003.003-.072.003-.116.003zm143.775-2.021c-.06-.949.567-1.76 1.467-1.828.885-.14 1.654.548 1.714 1.49.13.943-.568 1.76-1.408 1.822-.06.078-.116.078-.175.078-.77-.006-1.468-.692-1.598-1.562zM241.497 292.5c-.885-.208-1.467-1.08-1.265-1.959.13-.957.944-1.568 1.788-1.419.888.2 1.467 1.005 1.336 1.962-.13.81-.828 1.42-1.598 1.42-.07-.004-.187-.004-.261-.004zm142.323-1.896c-.19-.948.377-1.828 1.277-1.96.828-.14 1.654.478 1.844 1.352.13.948-.451 1.827-1.337 1.968-.07.062-.115.062-.26.062-.755-.003-1.394-.605-1.524-1.422zm-141.117-4.738c-.814-.271-1.322-1.21-1.132-2.093.262-.889 1.132-1.428 1.975-1.226.814.272 1.322 1.151 1.147 2.108-.19.734-.9 1.282-1.598 1.282-.116-.002-.247-.071-.392-.071zm139.706-1.69a1.735 1.735 0 0 1 1.161-2.109c.814-.194 1.714.35 1.919 1.229.246.88-.262 1.822-1.105 2.09h-.437c-.71 0-1.333-.462-1.538-1.21zm-137.903-4.816a1.697 1.697 0 0 1-.96-2.168c.247-.88 1.147-1.35 2.035-1.01.828.27 1.206 1.287.96 2.161a1.641 1.641 0 0 1-1.527 1.097c-.19-.003-.393-.003-.508-.08zm136.002-1.482c-.261-.88.13-1.837.96-2.168.828-.34 1.772.131 2.034 1.02.32.874-.13 1.822-.885 2.168-.205.062-.392.062-.582.062-.642-.003-1.266-.411-1.527-1.082zm-133.721-4.807c-.829-.408-1.135-1.419-.755-2.307.321-.802 1.277-1.151 2.035-.802.828.402 1.22 1.419.828 2.298-.246.603-.828.943-1.452.943-.208 0-.454-.072-.656-.132zm131.35-1.29c-.361-.812-.058-1.822.77-2.24.77-.402 1.729-.063 2.106.817.377.811.06 1.828-.77 2.23-.19.132-.436.132-.697.132a1.534 1.534 0 0 1-1.408-.94zm-128.532-4.807c-.77-.471-1.016-1.482-.638-2.299h.059c.377-.811 1.408-1.088 2.18-.611.754.47 1.004 1.49.567 2.308-.32.54-.828.81-1.41.81-.25 0-.511-.071-.758-.208zm125.613-1.02c-.451-.802-.202-1.83.568-2.308.769-.462 1.788-.194 2.165.549v.068c.523.812.261 1.822-.567 2.3a1.59 1.59 0 0 1-.77.208 1.532 1.532 0 0 1-1.396-.817zm-122.36-4.738c-.714-.54-.9-1.622-.393-2.37.508-.74 1.467-.948 2.225-.4.713.54.9 1.55.392 2.362-.306.408-.829.68-1.262.68a1.7 1.7 0 0 1-.963-.272zm119.049-.81c-.523-.812-.392-1.829.377-2.377.698-.54 1.657-.331 2.165.417.508.734.377 1.822-.377 2.362-.261.208-.582.277-.9.277-.508 0-1.019-.209-1.265-.68zm-115.302-4.676c-.698-.602-.754-1.622-.19-2.362.568-.748 1.598-.826 2.237-.208.698.61.754 1.628.175 2.37a1.502 1.502 0 0 1-1.206.617c-.318 0-.68-.146-1.016-.417zm111.468-.54c-.568-.742-.508-1.822.205-2.43.623-.54 1.654-.477 2.221.2.582.742.452 1.83-.19 2.439-.32.271-.639.402-1.016.402-.451-.003-.9-.27-1.22-.61zm-107.253-4.53c-.639-.679-.639-1.767 0-2.375.567-.68 1.583-.68 2.221 0 .639.61.639 1.7 0 2.376-.305.33-.698.471-1.146.471-.38 0-.757-.14-1.075-.471zm103.053-.339a1.713 1.713 0 0 1 0-2.376c.582-.671 1.598-.671 2.222-.069.638.68.638 1.774 0 2.445-.306.34-.698.471-1.147.471-.377 0-.826-.131-1.075-.471zm-98.464-4.338c-.583-.749-.508-1.769.19-2.37.623-.61 1.654-.55 2.236.199.567.67.437 1.76-.202 2.37a1.602 1.602 0 0 1-1.016.409c-.451.003-.947-.206-1.208-.608zm93.816-.138a1.76 1.76 0 0 1-.205-2.361c.582-.748 1.598-.817 2.236-.209.698.611.755 1.69.262 2.362-.321.423-.844.617-1.277.617-.318 0-.71-.14-1.016-.409zm-88.919-4.12c-.508-.749-.306-1.837.392-2.377.698-.54 1.714-.33 2.222.409.522.742.32 1.83-.378 2.37-.246.209-.567.34-.888.34-.507-.003-1.03-.28-1.348-.742zm84.01.131c-.77-.54-.886-1.56-.378-2.37.437-.758 1.453-.952 2.165-.409.755.534.96 1.56.437 2.376a1.616 1.616 0 0 1-1.336.734c-.31 0-.642-.131-.888-.331zm-78.708-3.927c-.452-.811-.205-1.822.567-2.299.769-.486 1.728-.218 2.18.608.436.803.175 1.831-.582 2.3v.062c-.262.131-.508.209-.77.209-.567-.003-1.09-.34-1.395-.88zm73.403.409c-.754-.472-1.016-1.488-.567-2.314.451-.802 1.41-1.065 2.165-.612.77.418 1.03 1.491.653 2.317-.332.54-.9.811-1.407.811a2.101 2.101 0 0 1-.844-.202zm-67.87-3.659c-.378-.82 0-1.837.769-2.24.828-.408 1.728-.068 2.165.818.32.81 0 1.822-.77 2.23-.246.14-.45.14-.697.14-.564 0-1.203-.346-1.467-.948zm62.396.602c-.813-.408-1.134-1.419-.813-2.23.377-.88 1.336-1.228 2.165-.811.754.4 1.134 1.35.754 2.23-.246.609-.814.942-1.467.942-.19 0-.437 0-.639-.13zm-56.584-3.318c-.261-.871.116-1.89.944-2.168.844-.331 1.729.077 2.05.957.32.889-.131 1.89-.96 2.162-.13.068-.32.14-.508.14a1.65 1.65 0 0 1-1.526-1.091zm50.858.817h-.074c-.829-.34-1.22-1.288-.96-2.168.333-.88 1.206-1.36 2.05-1.01.814.27 1.277 1.281.96 2.16-.19.68-.83 1.08-1.468 1.08-.202 0-.389 0-.508-.062zm-44.814-3.048c-.247-.88.246-1.821 1.09-2.03.828-.269 1.714.271 1.975 1.15.246.943-.261 1.823-1.147 2.1-.13.068-.26.068-.392.068-.697 0-1.339-.54-1.526-1.288zm38.83 1.08c-.844-.2-1.352-1.151-1.162-2.022.262-.957 1.162-1.497 1.975-1.225.844.208 1.337 1.15 1.147 2.036-.19.74-.814 1.282-1.524 1.282-.13 0-.246 0-.436-.071zm-32.644-2.708c-.205-.88.378-1.753 1.263-1.959.843-.13 1.669.477 1.859 1.42.13.88-.452 1.768-1.277 1.959h-.318c-.754 0-1.393-.54-1.527-1.42zm26.585 1.288c-.9-.14-1.482-1.02-1.292-1.959.145-.88.96-1.49 1.86-1.36h-.06c.885.14 1.452 1.02 1.321 1.969-.115.81-.813 1.419-1.583 1.419-.056 0-.127 0-.246-.069zm-20.336-2.298c-.071-.949.568-1.76 1.467-1.831.83-.063 1.658.611 1.714 1.49.071.949-.567 1.76-1.467 1.9h-.13c-.83 0-1.527-.68-1.584-1.56zm14.15 1.487c-.9-.068-1.527-.88-1.468-1.83.06-.957.888-1.622 1.729-1.55.888.062 1.511.873 1.452 1.821-.06.889-.77 1.56-1.598 1.56h-.116zm-7.773-1.959c0-.948.683-1.705 1.583-1.705.829 0 1.598.757 1.598 1.705 0 .943-.77 1.691-1.598 1.691-.9 0-1.583-.748-1.583-1.69z"/>
            <path fill="url(#f)" d="M424.29 411.696c0 43.081-32.857 78.008-73.354 78.008-40.5 0-73.337-34.927-73.337-78.008 0-43.106 32.84-78.033 73.337-78.033 40.497.003 73.353 34.93 73.353 78.033z" opacity=".4" transform="translate(-37.321 -107.606)"/>
            <path fill="#FFF" d="M312.13 503.419c0-.952.698-1.691 1.597-1.691.814 0 1.512.74 1.512 1.69 0 .949-.698 1.691-1.512 1.691-.902 0-1.597-.742-1.597-1.69zm-4.928 1.42c-.885-.063-1.526-.88-1.452-1.829.074-.942.829-1.622 1.729-1.55.873.062 1.526.88 1.467 1.83-.086.871-.784 1.551-1.598 1.551-.071-.003-.146-.003-.146-.003zm11.23-1.552c-.074-.95.567-1.768 1.467-1.83.829-.069 1.657.61 1.714 1.482.074.948-.567 1.759-1.467 1.9h-.131c-.826 0-1.524-.68-1.583-1.552zm-17.65.671c-.9-.193-1.468-1.079-1.337-1.959.175-.948 1.004-1.56 1.844-1.35.885.13 1.452 1.01 1.337 1.959a1.608 1.608 0 0 1-1.598 1.35h-.247zm23.955-1.419c-.116-.88.452-1.76 1.337-1.96.828-.14 1.657.472 1.859 1.352.13.948-.451 1.837-1.336 1.959-.072.068-.202.068-.262.068-.77 0-1.467-.602-1.598-1.419zm-30.332-.069c-.829-.2-1.337-1.15-1.162-2.099.262-.87 1.162-1.42 1.99-1.15.829.208 1.337 1.15 1.135 2.03-.175.748-.814 1.288-1.527 1.288-.116 0-.32 0-.436-.069zm36.578-1.22c-.19-.942.262-1.821 1.147-2.09.843-.208 1.713.34 1.975 1.211.19.88-.321 1.831-1.132 2.03-.145.07-.276.07-.392.07-.754 0-1.408-.472-1.598-1.22zm-42.753-.879c-.84-.271-1.277-1.288-.96-2.09.307-.949 1.207-1.36 2.035-1.02.829.268 1.262 1.282.96 2.09-.262.749-.83 1.151-1.527 1.151-.128 0-.333-.062-.508-.13zm48.886-1.02c-.332-.87.116-1.884.945-2.153.828-.349 1.728.131 2.046 1.002.306.817-.13 1.837-.96 2.168-.19.069-.376.069-.507.069-.71.003-1.277-.4-1.524-1.086zm-54.885-1.55c-.829-.409-1.147-1.429-.755-2.3a1.514 1.514 0 0 1 2.091-.81c.754.399 1.147 1.413.754 2.23-.246.67-.813 1.01-1.467 1.01-.172 0-.433-.062-.623-.13zm60.796-.949c-.378-.802-.06-1.822.769-2.23.769-.418 1.728 0 2.106.802.377.895.074 1.905-.77 2.317-.19.063-.451.131-.698.131-.579-.003-1.146-.343-1.407-1.02zm-66.59-2.23c-.77-.471-1.031-1.569-.583-2.377.451-.802 1.408-1.088 2.165-.611.77.48 1.016 1.497.582 2.299-.246.549-.828.88-1.336.88-.321 0-.582-.06-.829-.191zm72.271-.749c-.451-.82-.19-1.837.567-2.299.755-.47 1.788-.208 2.237.603.377.817.13 1.837-.639 2.308-.19.208-.508.271-.754.271-.597-.003-1.108-.337-1.41-.883zm-77.763-2.988c-.698-.54-.885-1.613-.378-2.361.508-.749 1.542-.949 2.225-.403.713.534.9 1.55.392 2.362-.32.48-.829.67-1.351.67a1.41 1.41 0 0 1-.888-.268zm83.24-.54c-.508-.742-.377-1.759.377-2.298.713-.54 1.729-.4 2.18.408.493.743.377 1.822-.392 2.377-.247.194-.567.271-.885.271-.51 0-1.019-.271-1.28-.757zm-88.396-3.658c-.639-.603-.77-1.691-.19-2.362a1.55 1.55 0 0 1 2.236-.268v.062c.683.618.754 1.628.247 2.377-.393.4-.83.608-1.266.608-.332 0-.71-.14-1.027-.417zm93.495-.331c-.582-.68-.508-1.76.202-2.37.624-.603 1.658-.472 2.222.208.567.742.508 1.822-.187 2.362-.321.27-.654.408-1.019.408-.448 0-.9-.2-1.218-.608zm-98.277-4.33c-.639-.68-.639-1.768 0-2.377.639-.68 1.654-.68 2.222 0 .638.612.638 1.7 0 2.377-.247.34-.698.48-1.076.48-.448-.003-.825-.14-1.146-.48zm103.056-.078c-.638-.67-.638-1.759 0-2.439.639-.67 1.598-.67 2.236 0 .639.68.639 1.768 0 2.44-.317.268-.697.477-1.09.477-.433 0-.828-.21-1.146-.478zm-107.458-5.01c-.567-.748-.507-1.759.202-2.361.698-.617 1.643-.549 2.225.194.582.68.508 1.768-.205 2.376-.247.272-.624.403-1.016.403-.451 0-.87-.209-1.206-.611zm111.86.078c-.698-.608-.77-1.637-.187-2.376.507-.68 1.523-.812 2.221-.2.639.602.77 1.69.19 2.361-.32.409-.754.618-1.206.618-.38 0-.757-.14-1.018-.403zm-115.795-5.564c-.523-.74-.332-1.822.363-2.362.712-.477 1.743-.34 2.236.471.508.74.32 1.828-.377 2.3-.321.277-.639.34-.96.34-.507 0-.959-.27-1.262-.75zm119.745.349c-.713-.54-.9-1.628-.392-2.377.508-.734 1.538-.942 2.236-.403.698.54.888 1.551.392 2.3-.333.48-.843.748-1.292.748a1.82 1.82 0 0 1-.944-.268zm-123.261-6.098c-.452-.818-.19-1.9.582-2.371.754-.418 1.714-.131 2.165.602.437.826.175 1.906-.582 2.377a1.7 1.7 0 0 1-.829.209c-.508 0-1.09-.278-1.336-.817zm126.822.47c-.755-.47-1.016-1.496-.568-2.292a1.478 1.478 0 0 1 2.166-.68c.769.462 1.03 1.56.567 2.299v.062c-.306.54-.814.803-1.396.803a1.602 1.602 0 0 1-.77-.191zm-129.872-6.637c-.333-.811 0-1.828.813-2.23.77-.41 1.729 0 2.106.81.377.811 0 1.831-.754 2.23-.262.138-.452.21-.713.21-.567 0-1.147-.409-1.452-1.02zm132.937.68c-.829-.409-1.147-1.351-.755-2.23.318-.88 1.263-1.226 2.106-.812.755.403 1.132 1.42.755 2.23-.262.612-.83 1.011-1.468 1.011-.19 0-.451-.068-.638-.2zm-135.438-7.047c-.318-.873.13-1.83.96-2.168.828-.33 1.787.132 2.048 1.026.306.88-.13 1.831-.959 2.162-.13.078-.333.137-.508.137-.638 0-1.292-.468-1.541-1.157zm137.995.88a1.706 1.706 0 0 1-.96-2.162c.318-.889 1.206-1.35 2.035-1.02a1.72 1.72 0 0 1 .96 2.168c-.262.68-.83 1.088-1.468 1.088-.19.003-.38.003-.567-.074zm-139.91-7.446c-.247-.88.26-1.822 1.09-2.03.884-.272 1.728.27 1.974 1.15a1.7 1.7 0 0 1-1.146 2.1c-.116 0-.247.077-.377.077-.698 0-1.34-.549-1.542-1.297zm141.941 1.017c-.828-.209-1.336-1.151-1.146-2.031.247-.957 1.146-1.491 1.975-1.229.829.272 1.337 1.157 1.146 2.109-.19.748-.828 1.21-1.597 1.21a.793.793 0 0 1-.378-.06zm-143.338-7.724c-.19-.942.377-1.83 1.277-1.962.829-.208 1.658.403 1.845 1.36.13.889-.437 1.76-1.277 1.96h-.306c-.77 0-1.408-.532-1.539-1.358zm144.865 1.157c-.888-.14-1.467-1.025-1.336-1.962.19-.888 1.015-1.497 1.844-1.365a1.784 1.784 0 0 1 1.351 1.977c-.205.802-.828 1.419-1.598 1.419-.07 0-.187 0-.261-.069zm-145.75-7.988c-.074-.958.567-1.828 1.452-1.9.83-.068 1.67.608 1.729 1.55.06.958-.567 1.76-1.467 1.847h-.13a1.582 1.582 0 0 1-1.584-1.497zm146.71 1.342c-.886-.063-1.527-.871-1.468-1.822.074-.949.844-1.623 1.714-1.56.9.069 1.538.88 1.482 1.828-.074.88-.77 1.55-1.598 1.55-.06.004-.13.004-.13.004zm-146.971-8.249c-.071-.957.713-1.69 1.526-1.69.9 0 1.598.733 1.598 1.69 0 .943-.698 1.691-1.523 1.691-.891 0-1.601-.748-1.601-1.69zm145.765-.208v-.069-.2c0-.948.697-1.768 1.583-1.768.9 0 1.612.748 1.612 1.706v.33c0 .958-.713 1.7-1.612 1.7-.886 0-1.583-.742-1.583-1.7zm-144.096-4.879c-.84-.062-1.539-.88-1.408-1.828.06-.948.829-1.622 1.714-1.55.828.062 1.523.88 1.408 1.822-.075.888-.77 1.56-1.598 1.56.003-.004-.072-.004-.116-.004zm143.775-2.022c-.06-.957.567-1.774 1.467-1.837.885-.068 1.654.609 1.714 1.56.13.88-.568 1.69-1.408 1.822h-.175c-.77 0-1.468-.67-1.598-1.545zm-143.092-4.675c-.885-.21-1.467-1.011-1.265-1.969.13-.95.944-1.55 1.788-1.36.888.14 1.467 1.026 1.336 1.906-.13.87-.828 1.42-1.598 1.42-.07.003-.187.003-.261.003zm142.323-1.831v-.069a1.656 1.656 0 0 1 1.277-1.96c.828-.14 1.654.472 1.844 1.43.13.879-.451 1.75-1.337 1.952h-.26c-.755-.003-1.394-.533-1.524-1.353zm-141.117-4.807c-.814-.269-1.322-1.151-1.132-2.109.262-.87 1.132-1.419 1.975-1.15.814.208 1.322 1.15 1.147 2.03-.19.749-.9 1.297-1.598 1.297-.116 0-.247 0-.392-.068zm139.706-1.688c-.247-.88.261-1.837 1.161-2.037.814-.271 1.714.278 1.919 1.157.246.88-.262 1.822-1.105 2.094-.116 0-.32.077-.437.077-.71-.003-1.333-.56-1.538-1.291zm-137.903-4.81a1.707 1.707 0 0 1-.96-2.168c.247-.88 1.147-1.36 2.035-1.02.828.346 1.206 1.288.96 2.168-.247.671-.889 1.151-1.527 1.151-.19 0-.321-.068-.508-.131zm136.002-1.497c-.261-.88.13-1.828.96-2.162.828-.277 1.772.131 2.034 1.01.32.88-.13 1.838-.885 2.169-.205.068-.392.131-.582.131-.642.003-1.266-.462-1.527-1.148zm-133.721-4.801c-.829-.403-1.135-1.42-.755-2.245.321-.88 1.277-1.211 2.035-.812.828.346 1.22 1.36.828 2.24-.246.617-.885.957-1.452.957-.208 0-.454 0-.656-.14zm131.35-1.226c-.361-.88-.058-1.9.77-2.299.77-.408 1.729-.062 2.106.817.377.811.06 1.831-.77 2.24-.19.125-.436.2-.697.2-.565 0-1.144-.35-1.408-.958zm-128.532-4.8c-.77-.478-1.016-1.566-.638-2.371h.059c.377-.811 1.408-1.08 2.18-.618.754.478 1.004 1.497.567 2.308-.32.531-.828.88-1.41.88-.25 0-.511-.068-.758-.2zm125.613-1.089c-.451-.811-.202-1.822.568-2.3.769-.48 1.788-.199 2.165.61.523.81.261 1.83-.567 2.298-.262.137-.508.269-.77.269-.582.003-1.09-.337-1.396-.877zm-122.36-4.738c-.714-.54-.9-1.623-.393-2.377.508-.734 1.467-.933 2.225-.403.713.55.9 1.569.392 2.377-.306.48-.829.743-1.337.743-.261 0-.582-.132-.888-.34zm119.049-.812c-.523-.748-.392-1.836.377-2.376.698-.534 1.657-.34 2.165.408.508.749.377 1.837-.377 2.377-.261.194-.582.34-.9.34a1.438 1.438 0 0 1-1.265-.749zM256.605 377.6c-.698-.54-.754-1.628-.19-2.37.568-.68 1.598-.812 2.237-.2.698.608.754 1.69.175 2.361a1.468 1.468 0 0 1-1.206.608c-.377 0-.68-.122-1.016-.4zm111.468-.54c-.568-.748-.508-1.76.205-2.37.623-.612 1.654-.54 2.221.2.582.679.452 1.767-.19 2.37-.32.277-.639.408-1.016.408-.451 0-.9-.208-1.22-.608zm-107.253-4.539c-.639-.602-.639-1.7 0-2.37.567-.671 1.583-.671 2.221 0 .639.67.639 1.768 0 2.37-.305.34-.698.55-1.09.55-.436 0-.813-.21-1.131-.55zm103.053-.33c-.639-.618-.639-1.691 0-2.377.582-.671 1.598-.671 2.222 0 .638.686.638 1.69 0 2.376-.306.331-.698.54-1.147.54-.377 0-.826-.209-1.075-.54zm-98.464-4.34c-.583-.68-.508-1.759.19-2.37.623-.611 1.654-.549 2.236.2.567.68.437 1.768-.202 2.37a1.57 1.57 0 0 1-1.016.409c-.451.003-.888-.2-1.208-.608zm93.816-.068c-.653-.611-.77-1.69-.205-2.445.582-.671 1.598-.802 2.236-.194.698.602.755 1.69.262 2.37-.321.41-.844.603-1.277.603-.318-.003-.71-.063-1.016-.334zm-88.919-4.208c-.508-.733-.306-1.75.392-2.299.698-.54 1.714-.4 2.222.34.522.811.32 1.9-.378 2.44v-.063c-.246.194-.567.34-.888.34-.507 0-1.03-.277-1.348-.758zm84.01.21v-.063c-.77-.478-.886-1.566-.378-2.308.437-.812 1.453-.949 2.165-.472.755.54.96 1.629.437 2.362a1.595 1.595 0 0 1-1.336.749c-.31.003-.642-.06-.888-.269zm-78.708-3.928c-.452-.811-.205-1.9.567-2.362v.063c.769-.471 1.728-.272 2.18.611.436.749.175 1.822-.582 2.3a1.59 1.59 0 0 1-.77.208 1.561 1.561 0 0 1-1.395-.82zm73.403.34c-.754-.477-1.016-1.491-.567-2.3.451-.81 1.41-1.079 2.165-.61.77.48 1.03 1.49.653 2.299-.332.54-.9.88-1.407.88-.247 0-.58-.132-.844-.27zm-67.87-3.59c-.378-.88 0-1.9.769-2.309.828-.393 1.728-.062 2.165.818.32.88 0 1.836-.77 2.239-.246.14-.45.2-.697.2-.564.003-1.203-.406-1.467-.948zm62.396.542c-.813-.33-1.134-1.345-.813-2.23.377-.811 1.336-1.226 2.165-.811.754.408 1.134 1.413.754 2.23-.246.617-.814 1.02-1.467 1.02a1.234 1.234 0 0 1-.639-.209zm-56.584-3.322c-.261-.88.116-1.89.944-2.162.844-.34 1.729.123 2.05 1.011a1.71 1.71 0 0 1-.96 2.168c-.19.069-.32.069-.508.069a1.623 1.623 0 0 1-1.526-1.086zm50.858.82h-.074c-.829-.271-1.22-1.282-.96-2.162.333-.888 1.206-1.288 2.05-1.02a1.724 1.724 0 0 1 .96 2.169c-.19.664-.83 1.15-1.468 1.15a1.13 1.13 0 0 1-.508-.137zm-44.814-2.979c-.247-.948.246-1.828 1.09-2.099.828-.271 1.714.271 1.975 1.21.246.89-.261 1.838-1.147 2.037-.13.069-.26.069-.392.069-.697.003-1.339-.468-1.526-1.217zm38.83 1.011c-.844-.194-1.352-1.15-1.162-2.036.262-.943 1.162-1.482 1.975-1.211.844.2 1.337 1.157 1.147 2.1-.19.748-.814 1.228-1.524 1.228-.19-.003-.32-.003-.436-.08zm-32.644-2.639c-.205-.951.378-1.83 1.263-1.968.843-.2 1.669.409 1.859 1.36.13.88-.452 1.768-1.277 1.962h-.318c-.754-.003-1.393-.537-1.527-1.354zm26.585 1.288c-.9-.208-1.482-1.08-1.292-1.968.145-.948.96-1.55 1.86-1.42h-.06c.885.2 1.452 1.09 1.321 1.978-.115.802-.813 1.413-1.583 1.413-.056-.003-.187-.003-.246-.003zm-20.336-2.376c-.071-.88.568-1.76 1.467-1.822.83-.069 1.658.608 1.714 1.55.071.949-.567 1.769-1.467 1.828h-.13c-.83.003-1.527-.668-1.584-1.556zm14.15 1.497c-.9-.078-1.527-.88-1.468-1.837.06-.874.888-1.622 1.729-1.482.888.062 1.511.88 1.452 1.76-.06.873-.77 1.559-1.524 1.559h-.19zm-7.773-1.9c0-.948.683-1.69 1.583-1.76.829 0 1.598.812 1.598 1.692 0 .948-.77 1.696-1.598 1.696-.9 0-1.583-.748-1.583-1.628z"/>
            <path fill="url(#g)" d="M424.29 533.559c0 43.09-32.857 78.017-73.354 78.017-40.5 0-73.337-34.927-73.337-78.017 0-43.097 32.84-78.024 73.337-78.024s73.353 34.927 73.353 78.024z" opacity=".4" transform="translate(-37.321 -107.606)"/>
        </g>
    </g>
</svg>
