<svg xmlns="http://www.w3.org/2000/svg" width="130" height="110" viewBox="0 0 130 110">
    <g fill="none" fill-rule="nonzero">
        <path fill="#FFE178" d="M46.94 38.332c-14.826 4.094-25.714 17.686-25.714 33.826s10.888 29.732 25.714 33.825c14.825-4.093 25.713-17.686 25.713-33.825 0-16.14-10.888-29.732-25.713-33.826z"/>
        <path fill="#FFF" d="M80.09 81.222c-4.856-18.144 5.422-36.777 23.09-42.472a34.86 34.86 0 0 0-19.854-.501c-18.7 5.015-29.8 24.255-24.789 42.973 5.012 18.718 24.233 29.826 42.935 24.81.575-.153 1.14-.32 1.7-.502-10.923-3.544-19.888-12.38-23.081-24.308z"/>
        <path fill="#FFE178" d="M126.26 63.06c-3.193-11.929-12.158-20.765-23.08-24.31-17.668 5.695-27.946 24.328-23.09 42.472 3.194 11.927 12.16 20.764 23.082 24.308 17.668-5.694 27.946-24.328 23.089-42.47z"/>
        <path fill="#00A09B" d="M28.159 65.652c0-.67-.272-1.326-.744-1.798a2.557 2.557 0 0 0-1.796-.745 2.56 2.56 0 0 0-1.796.745 2.563 2.563 0 0 0-.744 1.798c0 .67.271 1.324.744 1.8a2.554 2.554 0 0 0 1.796.742c.668 0 1.323-.27 1.796-.743a2.57 2.57 0 0 0 .744-1.8zM49.573 63.11c-.667 0-1.323.271-1.796.744a2.563 2.563 0 0 0-.744 1.798c0 .67.272 1.324.744 1.8a2.556 2.556 0 0 0 1.796.742c.669 0 1.324-.27 1.796-.743a2.576 2.576 0 0 0 .745-1.8c0-.669-.272-1.325-.745-1.797a2.559 2.559 0 0 0-1.796-.745zM46.71 77.815a2.54 2.54 0 0 0-3.11 1.8 6.226 6.226 0 0 1-6.003 4.62c-2.81 0-5.279-1.9-6.005-4.62a2.54 2.54 0 0 0-3.109-1.8 2.543 2.543 0 0 0-1.799 3.113c1.32 4.94 5.806 8.392 10.913 8.392 5.106 0 9.593-3.451 10.912-8.392a2.543 2.543 0 0 0-1.8-3.113zM65.03 21.226a2.541 2.541 0 0 0 2.54-2.542V2.542a2.541 2.541 0 1 0-5.08 0v16.142a2.541 2.541 0 0 0 2.54 2.542zM65.032 25.125c-.67 0-1.324.27-1.8.746a2.56 2.56 0 0 0-.74 1.798c0 .668.268 1.324.74 1.796a2.564 2.564 0 0 0 1.8.746c.667 0 1.323-.272 1.796-.746a2.563 2.563 0 0 0 .744-1.796c0-.67-.272-1.326-.744-1.798a2.55 2.55 0 0 0-1.796-.746zM45.959 26.712a2.532 2.532 0 0 0 1.796.744c.65 0 1.301-.249 1.797-.745.991-.994.991-2.604-.002-3.596l-6.485-6.486a2.539 2.539 0 0 0-3.592.002 2.543 2.543 0 0 0 .001 3.595l6.485 6.486zM81.904 27.883c.65 0 1.3-.248 1.797-.744l6.894-6.908a2.543 2.543 0 0 0-.001-3.595 2.539 2.539 0 0 0-3.592 0l-6.896 6.908a2.543 2.543 0 0 0 1.798 4.34z"/>
        <path fill="#00A09B" d="M128.715 62.4c-5.366-20.041-26.022-31.979-46.047-26.607-6.872 1.842-12.944 5.507-17.686 10.582-7.096-7.563-16.916-11.847-27.385-11.847C16.866 34.528 0 51.408 0 72.158c0 20.75 16.866 37.63 37.597 37.63 10.479 0 20.314-4.297 27.413-11.88 7.028 7.46 16.94 11.866 27.398 11.866 3.212 0 6.476-.416 9.722-1.286 20.025-5.37 31.95-26.045 26.585-46.088zm-91.118 42.303c-17.93 0-32.516-14.6-32.516-32.545s14.586-32.545 32.516-32.545c9.281 0 17.974 3.893 24.143 10.745a38.577 38.577 0 0 0-1.9 2.967c-5.021 8.705-6.355 18.846-3.755 28.554a37.46 37.46 0 0 0 5.669 12.064c-6.17 6.861-14.873 10.76-24.157 10.76zm63.218-1.126c-17.319 4.643-35.183-5.68-39.824-23.013-2.247-8.397-1.094-17.168 3.248-24.696a32.968 32.968 0 0 1 2.788-4.092c4.3-5.388 10.177-9.254 16.956-11.071a32.41 32.41 0 0 1 8.41-1.113c14.354 0 27.526 9.602 31.414 24.125 4.64 17.334-5.674 35.215-22.992 39.86z"/>
        <path fill="#00A09B" d="M84.958 67.155a5.514 5.514 0 0 0-6.748-3.899 5.522 5.522 0 0 0-3.896 6.753 2.542 2.542 0 0 0 3.112 1.798 2.542 2.542 0 0 0 1.796-3.113.431.431 0 0 1 .303-.527.42.42 0 0 1 .326.044c.07.04.162.119.2.26a2.54 2.54 0 1 0 4.907-1.316zM105.386 57.64a5.471 5.471 0 0 0-4.182-.55 5.475 5.475 0 0 0-3.345 2.569 5.482 5.482 0 0 0-.55 4.184 2.542 2.542 0 0 0 3.11 1.798 2.543 2.543 0 0 0 1.797-3.115.422.422 0 0 1 .044-.325.418.418 0 0 1 .26-.2.42.42 0 0 1 .326.043c.07.04.162.118.2.26a2.542 2.542 0 0 0 4.908-1.315 5.475 5.475 0 0 0-2.568-3.349zM102.616 75.145a2.542 2.542 0 0 0-1.796 3.113 6.07 6.07 0 0 1-4.283 7.425 6.016 6.016 0 0 1-4.596-.605 6.026 6.026 0 0 1-2.822-3.681 2.539 2.539 0 0 0-3.111-1.798 2.542 2.542 0 0 0-1.796 3.113 11.07 11.07 0 0 0 5.189 6.77 11.064 11.064 0 0 0 8.451 1.113c5.932-1.591 9.465-7.716 7.876-13.652a2.54 2.54 0 0 0-3.112-1.798z"/>
    </g>
</svg>
