<svg xmlns="http://www.w3.org/2000/svg" width="23" height="42" viewBox="0 0 23 42">
    <path fill="#FFF" fill-rule="nonzero" d="M22.134.009L16.617 0C10.42 0 6.414 4.057 6.414 10.336v4.766H.867a.862.862 0 0 0-.867.857v6.905c0 .473.389.856.867.856h5.547v17.424c0 .473.388.856.868.856h7.237c.479 0 .867-.384.867-.856V23.72h6.485c.48 0 .868-.383.868-.856l.003-6.905a.852.852 0 0 0-.254-.606.873.873 0 0 0-.614-.251h-6.488v-4.04c0-1.942.469-2.927 3.03-2.927l3.717-.002A.862.862 0 0 0 23 7.277V.865a.862.862 0 0 0-.866-.856z"/>
</svg>
