<?xml version="1.0" encoding="UTF-8"?>
<svg width="145px" height="145px" viewBox="0 0 145 145" version="1.1" xmlns="http://www.w3.org/2000/svg" xmlns:xlink="http://www.w3.org/1999/xlink">
    <!-- Generator: Sketch 53.2 (72643) - https://sketchapp.com -->
    <title>reward</title>
    <desc>Created with Sketch.</desc>
    <defs>
        <linearGradient x1="90.9284776%" y1="-2.3705%" x2="8.99390264%" y2="102.469763%" id="linearGradient-1">
            <stop stop-color="#50BEBE" offset="0%"></stop>
            <stop stop-color="#009999" offset="50.12%"></stop>
            <stop stop-color="#00999F" offset="63.15%"></stop>
            <stop stop-color="#0099AF" offset="80.33%"></stop>
            <stop stop-color="#0099CB" offset="99.74%"></stop>
            <stop stop-color="#0099CB" offset="100%"></stop>
        </linearGradient>
        <linearGradient x1="97.4688828%" y1="-2.3705%" x2="2.44109375%" y2="102.469763%" id="linearGradient-2">
            <stop stop-color="#50BEBE" offset="0%"></stop>
            <stop stop-color="#009999" offset="50.12%"></stop>
            <stop stop-color="#00999F" offset="63.15%"></stop>
            <stop stop-color="#0099AF" offset="80.33%"></stop>
            <stop stop-color="#0099CB" offset="99.74%"></stop>
            <stop stop-color="#0099CB" offset="100%"></stop>
        </linearGradient>
        <linearGradient x1="50.4969794%" y1="-2.3705%" x2="49.5020781%" y2="102.469763%" id="linearGradient-3">
            <stop stop-color="#50BEBE" offset="0%"></stop>
            <stop stop-color="#009999" offset="50.12%"></stop>
            <stop stop-color="#00999F" offset="63.15%"></stop>
            <stop stop-color="#0099AF" offset="80.33%"></stop>
            <stop stop-color="#0099CB" offset="99.74%"></stop>
            <stop stop-color="#0099CB" offset="100%"></stop>
        </linearGradient>
    </defs>
    <g id="reward" stroke="none" stroke-width="1" fill="none" fill-rule="evenodd">
        <g id="gift_box" transform="translate(7.000000, 3.000000)">
            <path d="M93.8003878,23.6847696 L102.258685,15.4681827 C103.126762,14.6247961 103.435268,13.3847968 103.063086,12.2321251 C102.691944,11.0794534 101.717826,10.2545199 100.52253,10.0759663 L98.2811229,9.74017106 C95.7792925,9.36642993 93.8658835,7.34594069 93.6285916,4.82747649 L93.4443201,2.86780465 C93.3286631,1.64599864 92.5416755,0.622498942 91.3897835,0.199116259 C90.2404906,-0.227645168 88.9771,0.04369401 88.0957675,0.898516381 L65.694951,22.66101 L43.2946544,0.896956961 C42.4125421,0.04369401 41.1475921,-0.227645168 39.9990789,0.199116259 C38.8471869,0.622498942 38.0601993,1.64599864 37.945322,2.86780465 L37.7607906,4.82747649 C37.5234988,7.34594069 35.6103496,9.36642993 33.1085192,9.74017106 L30.8689314,10.0759663 C29.6715563,10.2545199 28.6976982,11.0794534 28.3265561,12.2321251 C27.9551541,13.3847968 28.2633996,14.6247961 29.1325166,15.4681827 L37.5897741,23.6847696 L4.26865388,23.6847696 C2.05951488,23.6847696 0.268653884,25.4756306 0.268653884,27.6847696 L0.268653884,52.3835821 C0.268653884,54.5927211 2.05951488,56.3835821 4.26865388,56.3835821 L18.8587941,56.3835821 L18.1630534,135.80904 C18.1437028,138.018095 19.9188084,139.824574 22.1278626,139.843924 C22.1395415,139.844027 22.1512207,139.844078 22.1629,139.844078 L52.1396878,139.844078 L79.2499543,139.844078 L108.563043,139.60814 C110.759548,139.59046 112.530848,137.804846 112.530848,135.608269 L112.530848,56.3835821 L126.121768,56.3835821 C128.330907,56.3835821 130.121768,54.5927211 130.121768,52.3835821 L130.121768,27.6847696 C130.121768,25.4756306 128.330907,23.6847696 126.121768,23.6847696 L93.8003878,23.6847696 Z" id="Fill-31" fill="url(#linearGradient-1)"></path>
            <path d="M88.5331284,4.26919796 C89.243536,3.5863736 89.895238,3.45256427 90.4882343,3.86776994 C91.2244837,7.10384499 91.9032844,9.158648 92.5246362,10.032179 C94.1132493,12.2655395 96.9536915,11.9898518 98.9126991,12.185778 C99.7902919,13.0410448 99.7786751,13.8157406 98.8778487,14.5098654 C97.9770222,15.2039903 94.8173194,18.1150878 89.3987401,23.243158 L83.869697,23.243158 L69.0932553,23.243158 C81.3427631,11.2766757 87.8227208,4.95202231 88.5331284,4.26919796 Z" id="Fill-34" fill="#FEFEFE"></path>
            <path d="M50.9455798,4.26919796 C51.6559874,3.5863736 52.3076893,3.45256427 52.9006857,3.86776994 C53.6369351,7.10384499 54.3157357,9.158648 54.9370876,10.032179 C56.5257007,12.2655395 59.3661429,11.9898518 61.3251504,12.185778 C62.2027433,13.0410448 62.1911265,13.8157406 61.2903001,14.5098654 C60.3894736,15.2039903 57.2297708,18.1150878 51.8111915,23.243158 L46.2821484,23.243158 L31.5057066,23.243158 C43.7552145,11.2766757 50.2351722,4.95202231 50.9455798,4.26919796 Z" id="Fill-34-Copy" fill="#FEFEFE" transform="translate(46.740226, 13.437711) scale(-1, 1) translate(-46.740226, -13.437711) "></path>
            <path d="M49,137 L22.877536,137 C22.3941135,137 22,136.431102 22,135.730781 L22,57 L46.0175118,57 L49,57 L49,137 Z" id="Fill-40" fill="#FEFEFE"></path>
            <polygon id="Fill-42" fill="#FEFEFE" points="79 137 52 137 52 57 79 57"></polygon>
            <path d="M109,135.730781 C109,136.431102 108.606893,137 108.122974,137 L82,137 L82,57 L84.9832094,57 L109,57 L109,135.730781 Z" id="Fill-46" fill="#FEFEFE"></path>
            <polygon id="Fill-44" fill="#FEFEFE" points="47.881941 54 44 54 44 26 64.5672776 26 65.4318107 26 86 26 86 54 82.1171474 54"></polygon>
            <path d="M3.62505374,54 C3.51803368,54 3,53.3769114 3,52.6099241 C3,36.3080169 3,27.9014008 3,27.3900759 C3,26.6230886 3.51803368,26 4.15466896,26 C4.57909247,26 15.5711404,26 37.1308129,26 L41.1322957,26 L41.1322957,54 L9.36899049,54 L3.62505374,54 Z" id="Fill-38" fill="#FEFEFE"></path>
            <path d="M127.132296,52.6099241 C127.132296,53.3769114 126.615375,54 125.978893,54 L120.762764,54 L89,54 L89,26 L93.0005283,26 L125.978893,26 C126.615375,26 127.132296,26.6230886 127.132296,27.3900759 L127.132296,52.6099241 Z" id="Fill-48" fill="#FEFEFE"></path>
        </g>
        <g id="points" transform="translate(64.108819, 63.562224)">
            <path d="M2.45154438,39.2217899 C1.09764651,39.2217899 0,40.2515779 0,41.524496 L0,41.8214645 C0,43.0943827 1.09764651,44.1245136 2.45154438,44.1245136 C3.80507723,44.1245136 4.90272374,43.0943827 4.90272374,41.8214645 L4.90272374,41.524496 C4.90272374,40.2515779 3.80507723,39.2217899 2.45154438,39.2217899" id="Fill-50" fill="url(#linearGradient-2)"></path>
            <path d="M0.540077821,0 L0.540077821,35.4722872 C0.540077821,36.8693792 1.41063554,38 2.4843061,38 C3.55771725,38 4.42827497,36.8693792 4.42827497,35.4722872 L4.42827497,0 L0.540077821,0 Z" id="Fill-42-Copy" fill="url(#linearGradient-3)"></path>
        </g>
    </g>
</svg>