<svg xmlns="http://www.w3.org/2000/svg" xmlns:xlink="http://www.w3.org/1999/xlink" width="254" height="268" viewBox="0 0 254 268">
    <defs>
        <path id="a" d="M0 .332h237.523v360H0z"/>
        <linearGradient id="b" x1="90.637%" x2="9.286%" y1="-2.37%" y2="102.47%">
            <stop offset="0%" stop-color="#50BEBE"/>
            <stop offset="50.12%" stop-color="#099"/>
            <stop offset="63.15%" stop-color="#00999F"/>
            <stop offset="80.33%" stop-color="#0099AF"/>
            <stop offset="99.74%" stop-color="#0099CB"/>
            <stop offset="100%" stop-color="#0099CB"/>
        </linearGradient>
        <linearGradient id="d" x1="84.875%" x2="15.059%" y1="-2.37%" y2="102.47%">
            <stop offset="0%" stop-color="#50BEBE"/>
            <stop offset="50.12%" stop-color="#099"/>
            <stop offset="63.15%" stop-color="#00999F"/>
            <stop offset="80.33%" stop-color="#0099AF"/>
            <stop offset="99.74%" stop-color="#0099CB"/>
            <stop offset="100%" stop-color="#0099CB"/>
        </linearGradient>
    </defs>
    <g fill="none" fill-rule="evenodd">
        <g transform="translate(8)">
            <mask id="c" fill="#fff">
                <use xlink:href="#a"/>
            </mask>
            <path fill="url(#b)" d="M170.355 43.81l15.527-15.083a5.763 5.763 0 0 0 1.477-5.94 5.764 5.764 0 0 0-4.664-3.958l-4.114-.617a10.055 10.055 0 0 1-8.541-9.018l-.338-3.597a5.756 5.756 0 0 0-3.772-4.9c-2.11-.783-4.429-.285-6.047 1.285l-41.121 39.95-41.12-39.953C76.021.412 73.7-.086 71.591.698a5.752 5.752 0 0 0-3.77 4.899l-.34 3.597a10.055 10.055 0 0 1-8.54 9.018l-4.11.617a5.763 5.763 0 0 0-4.668 3.958 5.763 5.763 0 0 0 1.48 5.94l15.525 15.084H7.836C3.516 43.81 0 47.326 0 51.645v47.357c0 4.319 3.515 4.834 7.836 4.834h24.948v145.375c0 4.32 3.515 7.835 7.836 7.835h156.285c4.319 0 7.834-3.515 7.834-7.835V103.836h24.95c4.319 0 7.834-.515 7.834-4.834V51.645c0-4.319-3.515-7.834-7.835-7.834h-59.333z" mask="url(#c)"/>
        </g>
        <path fill="#FEFEFE" d="M168.686 8.17c1.304-1.254 2.5-1.5 3.59-.738 1.35 5.94 2.597 9.713 3.737 11.316 2.917 4.1 8.13 3.594 11.727 3.954 1.611 1.57 1.59 2.992-.064 4.266-1.654 1.274-7.454 6.618-17.4 16.032H133c22.487-21.967 34.382-33.577 35.686-34.83zM84.246 8.17c-1.304-1.254-2.5-1.5-3.589-.738-1.351 5.94-2.597 9.713-3.738 11.316-2.916 4.1-8.13 3.594-11.727 3.954-1.61 1.57-1.59 2.992.064 4.266C66.91 28.242 72.71 33.586 82.657 43h37.275C97.446 21.033 85.551 9.423 84.246 8.17zM15.147 99C14.951 99 14 97.865 14 96.468V50.532c0-1.397.951-2.532 2.12-2.532H84v51H15.147zM97 252H47.658c-.914 0-1.658-1.038-1.658-2.316V106h51v146zM151 252h-48V106h8.991v62.445c0 2.46 1.599 4.45 3.57 4.45 1.97 0 3.568-1.99 3.568-4.45V106H151v146zM96.747 99H90V48h73v51h-6.749zM208 249.684c0 1.278-.743 2.316-1.657 2.316H157V106h51v143.684zM239 96.468c0 1.397-.949 2.532-2.117 2.532H169V48h67.883c1.168 0 2.117 1.135 2.117 2.532v45.936z"/>
        <path fill="url(#d)" d="M115 141c-1.657 0-3 1.47-3 3.288v.424c0 1.817 1.343 3.288 3 3.288s3-1.47 3-3.288v-.424c0-1.818-1.343-3.288-3-3.288"/>
    </g>
</svg>
