<svg xmlns="http://www.w3.org/2000/svg" width="34" height="34" viewBox="0 0 34 34">
    <defs>
        <linearGradient id="a" x1="97.469%" x2="2.441%" y1="-1.861%" y2="101.96%">
            <stop offset="0%" stop-color="#50BEBE"/>
            <stop offset="50.12%" stop-color="#099"/>
            <stop offset="63.15%" stop-color="#00999F"/>
            <stop offset="80.33%" stop-color="#0099AF"/>
            <stop offset="99.74%" stop-color="#0099CB"/>
            <stop offset="100%" stop-color="#0099CB"/>
        </linearGradient>
    </defs>
    <g fill="none" fill-rule="evenodd">
        <g transform="translate(2 2)">
            <rect width="29" height="29" x=".5" y=".5" fill="#FFF" stroke="#00A09B" stroke-linejoin="square" rx="14.5"/>
            <rect width="32" height="32" x="-1" y="-1" stroke="#FFF" stroke-width="2" rx="15"/>
        </g>
        <path fill="url(#a)" fill-rule="nonzero" d="M16.737 10.333l2.858 2.859-7.235 7.234-2.856-2.858 7.233-7.235zm5.027-.689L20.489 8.37a1.265 1.265 0 0 0-1.787 0l-1.22 1.221 2.858 2.859 1.424-1.425a.974.974 0 0 0 0-1.38zM8.008 21.586a.325.325 0 0 0 .393.387l3.185-.773-2.856-2.858-.722 3.244z" transform="translate(2 2)"/>
    </g>
</svg>
