<svg xmlns="http://www.w3.org/2000/svg" width="46" height="44" viewBox="0 0 46 44">
    <g fill="#FFF" fill-rule="nonzero">
        <path d="M9.014 13.895H.67c-.37 0-.67.32-.67.717v28.671c0 .396.3.717.67.717h8.344c.37 0 .67-.32.67-.717V14.612c0-.396-.3-.717-.67-.717zM6.055 0C2.716 0 0 2.597 0 5.788c0 3.193 2.716 5.79 6.055 5.79 3.336 0 6.05-2.597 6.05-5.79C12.105 2.597 9.391 0 6.055 0zM33.717 11.579c-3.86 0-6.713 1.621-8.443 3.463v-1.96a.763.763 0 0 0-.773-.753h-9.203a.763.763 0 0 0-.772.754v30.163c0 .416.346.754.772.754h9.59a.763.763 0 0 0 .771-.754V28.322c0-5.029 1.398-6.988 4.986-6.988 3.908 0 4.219 3.14 4.219 7.247v14.665c0 .416.345.754.772.754h9.592a.763.763 0 0 0 .772-.754V26.7c0-7.478-1.46-15.122-12.283-15.122z"/>
    </g>
</svg>
