<svg width="145px" height="145px" viewBox="0 0 145 145" version="1.1" xmlns="http://www.w3.org/2000/svg" xmlns:xlink="http://www.w3.org/1999/xlink">
    <defs>
        <linearGradient x1="68.4553629%" y1="-2.3705%" x2="31.5096371%" y2="102.469763%" id="linearGradient-1">
            <stop stop-color="#50BEBE" offset="0%"></stop>
            <stop stop-color="#009999" offset="50.12%"></stop>
            <stop stop-color="#00999F" offset="63.15%"></stop>
            <stop stop-color="#0099AF" offset="80.33%"></stop>
            <stop stop-color="#0099CB" offset="99.74%"></stop>
            <stop stop-color="#0099CB" offset="100%"></stop>
        </linearGradient>
        <linearGradient x1="97.4688828%" y1="49.6735911%" x2="-2.61951239%" y2="50.0798407%" id="linearGradient-2">
            <stop stop-color="#50BEBE" offset="0%"></stop>
            <stop stop-color="#009999" offset="50.12%"></stop>
            <stop stop-color="#00999F" offset="63.15%"></stop>
            <stop stop-color="#0099AF" offset="80.33%"></stop>
            <stop stop-color="#0099CB" offset="99.74%"></stop>
            <stop stop-color="#0099CB" offset="100%"></stop>
        </linearGradient>
        <linearGradient x1="97.4688828%" y1="49.6735911%" x2="-5.37627755%" y2="50.1716617%" id="linearGradient-3">
            <stop stop-color="#50BEBE" offset="0%"></stop>
            <stop stop-color="#009999" offset="50.12%"></stop>
            <stop stop-color="#00999F" offset="63.15%"></stop>
            <stop stop-color="#0099AF" offset="80.33%"></stop>
            <stop stop-color="#0099CB" offset="99.74%"></stop>
            <stop stop-color="#0099CB" offset="100%"></stop>
        </linearGradient>
        <linearGradient x1="97.4688828%" y1="49.6735911%" x2="-7.14360282%" y2="49.8338685%" id="linearGradient-4">
            <stop stop-color="#50BEBE" offset="0%"></stop>
            <stop stop-color="#009999" offset="50.12%"></stop>
            <stop stop-color="#00999F" offset="63.15%"></stop>
            <stop stop-color="#0099AF" offset="80.33%"></stop>
            <stop stop-color="#0099CB" offset="99.74%"></stop>
            <stop stop-color="#0099CB" offset="100%"></stop>
        </linearGradient>
        <linearGradient x1="68.5425323%" y1="-2.3705%" x2="31.4223022%" y2="102.469763%" id="linearGradient-5">
            <stop stop-color="#50BEBE" offset="0%"></stop>
            <stop stop-color="#009999" offset="50.12%"></stop>
            <stop stop-color="#00999F" offset="63.15%"></stop>
            <stop stop-color="#0099AF" offset="80.33%"></stop>
            <stop stop-color="#0099CB" offset="99.74%"></stop>
            <stop stop-color="#0099CB" offset="100%"></stop>
        </linearGradient>
        <linearGradient x1="97.4688828%" y1="36.907375%" x2="2.44109375%" y2="63.1174406%" id="linearGradient-6">
            <stop stop-color="#50BEBE" offset="0%"></stop>
            <stop stop-color="#009999" offset="50.12%"></stop>
            <stop stop-color="#00999F" offset="63.15%"></stop>
            <stop stop-color="#0099AF" offset="80.33%"></stop>
            <stop stop-color="#0099CB" offset="99.74%"></stop>
            <stop stop-color="#0099CB" offset="100%"></stop>
        </linearGradient>
        <linearGradient x1="97.4688828%" y1="-2.3705%" x2="2.44109375%" y2="102.469763%" id="linearGradient-7">
            <stop stop-color="#50BEBE" offset="0%"></stop>
            <stop stop-color="#009999" offset="50.12%"></stop>
            <stop stop-color="#00999F" offset="63.15%"></stop>
            <stop stop-color="#0099AF" offset="80.33%"></stop>
            <stop stop-color="#0099CB" offset="99.74%"></stop>
            <stop stop-color="#0099CB" offset="100%"></stop>
        </linearGradient>
    </defs>
    <g id="trophy" stroke="none" stroke-width="1" fill="none" fill-rule="evenodd">
        <g transform="translate(31.000000, 3.000000)">
            <path d="M55.4529315,48.4522857 L77.8748905,48.4522857 C79.5287205,48.4522857 80.8706102,47.1138564 80.8748805,45.4600319 L80.9844953,3.00774618 C80.9887734,1.35089746 79.6491002,0.0042881004 77.9922515,1.00005811e-05 C77.9896695,3.3335304e-06 77.9870874,8.79765477e-13 77.9845053,8.79740725e-13 L3,0 C1.34314575,-1.88262093e-14 1.93717515e-14,1.34314575 4.4408921e-16,3 C4.14659479e-16,3.00257616 3.31831209e-06,3.00515233 9.954928e-06,3.00772848 L0.109374258,45.4600142 C0.113634809,47.1138456 1.45552741,48.4522857 3.1093643,48.4522857 L25.5315916,48.4522857 L39.3248596,93.5202857 L39.3248596,106.785714 L32.3672973,106.785714 C31.2627278,106.785714 30.3672973,107.681145 30.3672973,108.785714 L30.3672973,114.023714 L24.5027053,114.023714 C23.3981358,114.023714 22.5027053,114.919145 22.5027053,116.023714 L22.5027053,127.880857 C22.5027053,128.985427 23.3981358,129.880857 24.5027053,129.880857 L54.5745718,129.880857 C55.6791413,129.880857 56.5745718,128.985427 56.5745718,127.880857 L56.5745718,116.023714 C56.5745718,114.919145 55.6791413,114.023714 54.5745718,114.023714 L50.6172258,114.023714 L50.6172258,108.785714 C50.6172258,107.681145 49.7217953,106.785714 48.6172258,106.785714 L41.6596635,106.785714 L41.6596635,93.5202857 L55.4529315,48.4522857 Z" id="Fill-5" fill="url(#linearGradient-1)"></path>
            <path d="M27,128 L53,128 C54.1045695,128 55,127.104569 55,126 L55,118 C55,116.895431 54.1045695,116 53,116 L27,116 C25.8954305,116 25,116.895431 25,118 L25,126 C25,127.104569 25.8954305,128 27,128 Z" id="Fill-7" fill="#FEFEFE"></path>
            <path d="M32.5,114 L47.5,114 C47.7761424,114 48,113.776142 48,113.5 L48,110 C48,109.447715 47.5522847,109 47,109 L33,109 C32.4477153,109 32,109.447715 32,110 L32,113.5 C32,113.776142 32.2238576,114 32.5,114 Z" id="Fill-10" fill="#FEFEFE"></path>
            <path d="M75.8926928,46 L56,46 L70.2669949,3 L76.0005716,3.00126194 C77.1051411,3.00150505 78.0003745,3.89713261 78.0001314,5.00170208 C78.000131,5.00339196 78.0001285,5.00508184 78.0001238,5.00677172 L77.8926853,44.0055098 C77.8896482,45.107924 76.9951112,46 75.8926928,46 Z" id="Fill-12" fill="#FEFEFE"></path>
            <path d="M3.55290527,44.0283428 L3.00016465,5.02832225 C2.98451134,3.92386367 3.86716242,3.01583358 4.971621,3.00018028 C4.98620442,2.99997359 5.00078967,2.99992643 5.01537412,3.00003881 L11.375041,3.04904249 L25,46 L5.55270443,46 C4.45918768,46 3.56840194,45.1217497 3.55290527,44.0283428 Z" id="Fill-13" fill="#FEFEFE"></path>
            <polygon id="Fill-14" fill="#FEFEFE" points="15 3 66 3 40.8579235 87"></polygon>
        </g>
        <g id="steps" transform="translate(16.000000, 131.000000)">
            <rect id="Rectangle" fill="url(#linearGradient-2)" x="0" y="6" width="38" height="3" rx="1"></rect>
            <rect id="Rectangle-Copy" fill="url(#linearGradient-3)" x="38" y="3" width="38" height="3" rx="1"></rect>
            <rect id="Rectangle-Copy-2" fill="url(#linearGradient-4)" x="76" y="0" width="38" height="3" rx="1"></rect>
        </g>
        <g id="7" transform="translate(59.000000, 11.000000)">
            <path d="M15.0001003,4.00007059 L28.1614036,4.00007059 L19.115778,29.3278275 C18.7459119,30.3677272 19.2882881,31.5109676 20.3278659,31.8819772 C20.5432917,31.9599061 20.7705758,32 20.9998363,32 C21.8451638,32 22.5995777,31.4683325 22.8836123,30.6718196 L32.8832665,2.67217252 C33.254262,1.63170805 32.7116035,0.487620661 31.671461,0.116328727 C31.4557528,0.0395291792 31.2284687,0 30.9992082,0 L15.0001003,0 C13.8955841,0 13,0.895618261 13,2.00017647 C13,3.10473468 13.8955841,4.00007059 15.0001003,4.00007059 Z" id="Stroke-16" stroke="#FEFEFE" fill="url(#linearGradient-5)"></path>
            <path d="M5.9699396,4 L5.98988622,4 L6.00983284,4 C7.1088636,4 8,3.10467989 8,2.00014117 C8,0.895602456 7.1088636,0 6.00983284,0 L1.99016716,0 C0.891136396,0 0,0.895602456 0,2.00014117 C0,3.10467989 0.891136396,4 1.99016716,4 L5.9699396,4 Z" id="Fill-17" stroke="#FFFFFF" fill="url(#linearGradient-6)"></path>
        </g>
        <g id="stars" transform="translate(15.693790, 54.000000)">
            <path d="M14.8642827,62.3704497 C12.518758,62.3704497 10.6172163,60.4689079 10.6172163,58.1233833 C10.6172163,56.950621 9.66659529,56 8.49383298,56 C7.32107066,56 6.37044968,56.950621 6.37044968,58.1233833 C6.37044968,60.4689079 4.46890792,62.3704497 2.1233833,62.3704497 C0.950620985,62.3704497 0,63.3210707 0,64.493833 C0,65.6665953 0.950620985,66.6172163 2.1233833,66.6172163 C4.46890792,66.6172163 6.37044968,68.518758 6.37044968,70.8642827 C6.37044968,72.037045 7.32107066,72.987666 8.49383298,72.987666 C9.66659529,72.987666 10.6172163,72.037045 10.6172163,70.8642827 C10.6172163,68.518758 12.518758,66.6172163 14.8642827,66.6172163 C16.037045,66.6172163 16.987666,65.6665953 16.987666,64.493833 C16.987666,63.3210707 16.037045,62.3704497 14.8642827,62.3704497" id="Path-Copy-3" fill="url(#linearGradient-7)"></path>
            <path d="M14.2500618,63.2500618 C12.3170508,63.2500618 10.7499382,61.6829492 10.7499382,59.7499382 C10.7499382,58.7834327 9.96650549,58 9,58 C8.03349451,58 7.25006177,58.7834327 7.25006177,59.7499382 C7.25006177,61.6829492 5.68294921,63.2500618 3.74993823,63.2500618 C2.78343275,63.2500618 2,64.0334945 2,65 C2,65.9665055 2.78343275,66.7499382 3.74993823,66.7499382 C5.68294921,66.7499382 7.25006177,68.3170508 7.25006177,70.2500618 C7.25006177,71.2165673 8.03349451,72 9,72 C9.96650549,72 10.7499382,71.2165673 10.7499382,70.2500618 C10.7499382,68.3170508 12.3170508,66.7499382 14.2500618,66.7499382 C15.2165673,66.7499382 16,65.9665055 16,65 C16,64.0334945 15.2165673,63.2500618 14.2500618,63.2500618" id="Path-Copy-4" fill="#FFFFFF"></path>
            <path d="M116.864283,6.37044968 C114.518758,6.37044968 112.617216,4.46890792 112.617216,2.1233833 C112.617216,0.950620985 111.666595,0 110.493833,0 C109.321071,0 108.37045,0.950620985 108.37045,2.1233833 C108.37045,4.46890792 106.468908,6.37044968 104.123383,6.37044968 C102.950621,6.37044968 102,7.32107066 102,8.49383298 C102,9.66659529 102.950621,10.6172163 104.123383,10.6172163 C106.468908,10.6172163 108.37045,12.518758 108.37045,14.8642827 C108.37045,16.037045 109.321071,16.987666 110.493833,16.987666 C111.666595,16.987666 112.617216,16.037045 112.617216,14.8642827 C112.617216,12.518758 114.518758,10.6172163 116.864283,10.6172163 C118.037045,10.6172163 118.987666,9.66659529 118.987666,8.49383298 C118.987666,7.32107066 118.037045,6.37044968 116.864283,6.37044968" id="Path-Copy-6" fill="url(#linearGradient-7)"></path>
            <path d="M116.250062,7.25006177 C114.317051,7.25006177 112.749938,5.68294921 112.749938,3.74993823 C112.749938,2.78343275 111.966505,2 111,2 C110.033495,2 109.250062,2.78343275 109.250062,3.74993823 C109.250062,5.68294921 107.682949,7.25006177 105.749938,7.25006177 C104.783433,7.25006177 104,8.03349451 104,9 C104,9.96650549 104.783433,10.7499382 105.749938,10.7499382 C107.682949,10.7499382 109.250062,12.3170508 109.250062,14.2500618 C109.250062,15.2165673 110.033495,16 111,16 C111.966505,16 112.749938,15.2165673 112.749938,14.2500618 C112.749938,12.3170508 114.317051,10.7499382 116.250062,10.7499382 C117.216567,10.7499382 118,9.96650549 118,9 C118,8.03349451 117.216567,7.25006177 116.250062,7.25006177" id="Path-Copy-5" fill="#FFFFFF"></path>
        </g>
    </g>
</svg>