<svg xmlns="http://www.w3.org/2000/svg" xmlns:xlink="http://www.w3.org/1999/xlink" width="355" height="460" viewBox="0 0 355 460">
    <defs>
        <linearGradient id="a" x1="68.407%" x2="31.558%" y1="-2.37%" y2="102.47%">
            <stop offset="0%" stop-color="#50BEBE"/>
            <stop offset="50.12%" stop-color="#099"/>
            <stop offset="63.15%" stop-color="#00999F"/>
            <stop offset="80.33%" stop-color="#0099AF"/>
            <stop offset="99.74%" stop-color="#0099CB"/>
            <stop offset="100%" stop-color="#0099CB"/>
        </linearGradient>
        <linearGradient id="b" x1="97.469%" x2="2.441%" y1="-2.37%" y2="102.47%">
            <stop offset="0%" stop-color="#50BEBE"/>
            <stop offset="50.12%" stop-color="#099"/>
            <stop offset="63.15%" stop-color="#00999F"/>
            <stop offset="80.33%" stop-color="#0099AF"/>
            <stop offset="99.74%" stop-color="#0099CB"/>
            <stop offset="100%" stop-color="#0099CB"/>
        </linearGradient>
        <path id="c" d="M10 467h354.167V7H10z"/>
        <linearGradient id="e" x1="68.544%" x2="31.421%" y1="-2.37%" y2="102.47%">
            <stop offset="0%" stop-color="#50BEBE"/>
            <stop offset="50.12%" stop-color="#099"/>
            <stop offset="63.15%" stop-color="#00999F"/>
            <stop offset="80.33%" stop-color="#0099AF"/>
            <stop offset="99.74%" stop-color="#0099CB"/>
            <stop offset="100%" stop-color="#0099CB"/>
        </linearGradient>
        <linearGradient id="f" x1="97.469%" x2="2.441%" y1="37.038%" y2="62.987%">
            <stop offset="0%" stop-color="#50BEBE"/>
            <stop offset="50.12%" stop-color="#099"/>
            <stop offset="63.15%" stop-color="#00999F"/>
            <stop offset="80.33%" stop-color="#0099AF"/>
            <stop offset="99.74%" stop-color="#0099CB"/>
            <stop offset="100%" stop-color="#0099CB"/>
        </linearGradient>
    </defs>
    <g fill="none" fill-rule="evenodd">
        <path fill="url(#a)" d="M193.998 170h53.918c19.551-.023 35.394-15.866 35.417-35.417V35.417C283.31 15.866 267.467.023 247.916 0h-212.5C15.866.023.023 15.866 0 35.417v99.166C.023 154.134 15.866 169.977 35.416 170h53.92l48.247 157.738v46.429H106.25V399.5H92.083V455h99.167v-55.5h-14.167v-25.333H145.75v-46.429L193.998 170z"/>
        <path fill="url(#b)" d="M333.416 7.083a7.083 7.083 0 1 0-14.166 0c0 7.824-6.343 14.167-14.167 14.167a7.083 7.083 0 1 0 0 14.166c7.824 0 14.167 6.343 14.167 14.167a7.083 7.083 0 1 0 14.166 0c0-7.824 6.343-14.167 14.167-14.167a7.083 7.083 0 1 0 0-14.166c-7.824 0-14.167-6.343-14.167-14.167z"/>
        <path fill="#FFF" d="M331 11a5 5 0 1 0-10 0c0 5.523-7.477 12-13 12a5 5 0 1 0 0 10c5.523 0 13 7.477 13 13a5 5 0 1 0 10 0c0-5.523 6.477-13 12-13a5 5 0 1 0 0-10c-5.523 0-12-6.477-12-12z"/>
        <path fill="url(#b)" d="M78.583 212.25c-7.824 0-14.167-6.343-14.167-14.167a7.083 7.083 0 1 0-14.166 0c0 7.824-6.343 14.167-14.167 14.167a7.083 7.083 0 1 0 0 14.166c7.824 0 14.167 6.343 14.167 14.167a7.083 7.083 0 1 0 14.166 0c0-7.824 6.343-14.167 14.167-14.167a7.083 7.083 0 1 0 0-14.166"/>
        <path fill="#FFF" d="M74.375 213.875c-6.213 0-11.25-5.037-11.25-11.25a5.625 5.625 0 1 0-11.25 0c0 6.213-5.037 11.25-11.25 11.25a5.625 5.625 0 1 0 0 11.25c6.213 0 11.25 5.037 11.25 11.25a5.625 5.625 0 1 0 11.25 0c0-6.213 5.037-11.25 11.25-11.25a5.625 5.625 0 1 0 0-11.25"/>
        <mask id="d" fill="#fff">
            <use xlink:href="#c"/>
        </mask>
        <path fill="#FEFEFE" d="M100.662 447.359h82v-40h-82zM113.875 399.5h55v-16h-55zM271.942 140.304c0 9.522-9.653 19.13-22.131 19.13h-53.87l48.626-147.868h2.244c23.891 0 24.13 14.672 24.13 21.13l1 107.608zM33.523 160.435c-14.081-.759-23.131-14.11-23.131-24.13V28.695c0-9.127 11.146-17.13 27.13-17.13h2.245l47.625 148.87c-26.526.505-44.482.505-53.87 0zM50.666 12.18h183l-92 294.992z" mask="url(#d)"/>
        <path fill="url(#e)" stroke="#FEFEFE" d="M148.75 42.5h46.615l-32.038 89.703a7.084 7.084 0 0 0 4.293 9.046 6.996 6.996 0 0 0 2.38.418 7.084 7.084 0 0 0 6.672-4.704l35.417-99.166a7.085 7.085 0 0 0-6.673-9.464H148.75a7.084 7.084 0 0 0 0 14.167z" mask="url(#d)"/>
        <path fill="url(#f)" stroke="#FFF" d="M120.416 42.5h.142a7.084 7.084 0 1 0 0-14.167H106.25a7.084 7.084 0 0 0 0 14.167h14.166z" mask="url(#d)"/>
    </g>
</svg>
