<svg xmlns="http://www.w3.org/2000/svg" width="27" height="25" viewBox="0 0 27 25">
    <path fill="none" fill-rule="nonzero" stroke="#FFF" stroke-width="1.5" d="M13.499 1c-.818 0-1.545.506-1.797 1.254l-2.08 6.145H2.89c-.818 0-1.545.506-1.797 1.254-.254.746.024 1.565.686 2.027l5.447 3.8-2.081 6.146c-.254.746.024 1.565.685 2.027.332.232.723.347 1.111.347.39 0 .782-.115 1.111-.347l5.447-3.8 5.447 3.8c.33.232.72.347 1.11.347.39 0 .78-.115 1.112-.347.661-.462.94-1.28.685-2.029l-2.08-6.144 5.448-3.798c.662-.462.94-1.28.686-2.028-.254-.748-.979-1.254-1.797-1.254h-6.733l-2.081-6.146C15.042 1.506 14.317 1 13.499 1z"/>
</svg>
