<svg xmlns="http://www.w3.org/2000/svg" width="20" height="23" viewBox="0 0 20 23">
    <g fill="#FFF" fill-rule="nonzero">
        <path d="M9.909 12.39h.156c1.425-.023 2.579-.514 3.43-1.452 1.874-2.067 1.562-5.61 1.528-5.948-.121-2.538-1.348-3.752-2.36-4.319C11.91.248 11.028.02 10.045 0h-.083c-.54 0-1.6.086-2.618.652-1.022.567-2.267 1.781-2.389 4.338-.034.339-.345 3.881 1.528 5.948.847.938 2 1.429 3.426 1.452zM6.254 5.11c0-.015.005-.029.005-.039.16-3.414 2.638-3.78 3.699-3.78H10.016c1.314.028 3.547.552 3.698 3.78 0 .015 0 .029.005.039.005.033.346 3.271-1.202 4.976-.613.676-1.43 1.01-2.506 1.019h-.049c-1.07-.01-1.893-.343-2.5-1.02C5.918 8.39 6.248 5.139 6.253 5.11z"/>
        <path d="M19.987 18.267v-.015c0-.038-.005-.076-.005-.119-.03-.943-.093-3.147-2.205-3.852l-.048-.014c-2.195-.548-4.02-1.786-4.04-1.8a.665.665 0 0 0-.914.157c-.21.29-.136.69.16.895.083.057 2.02 1.376 4.443 1.986 1.134.395 1.26 1.58 1.295 2.666 0 .043 0 .081.005.12.005.428-.025 1.09-.102 1.47-.789.439-3.879 1.953-8.58 1.953-4.68 0-7.79-1.519-8.583-1.957-.078-.38-.112-1.043-.103-1.471 0-.038.005-.076.005-.12.034-1.085.16-2.27 1.295-2.666 2.423-.61 4.36-1.933 4.442-1.986a.633.633 0 0 0 .161-.895.665.665 0 0 0-.915-.157c-.02.014-1.834 1.252-4.039 1.8a.623.623 0 0 0-.048.014C.099 14.986.035 17.19.006 18.13c0 .042 0 .08-.005.119v.014c-.005.248-.01 1.519.248 2.157a.614.614 0 0 0 .254.3c.146.095 3.644 2.276 9.498 2.276 5.854 0 9.353-2.185 9.5-2.276a.64.64 0 0 0 .252-.3c.243-.633.239-1.905.234-2.152z"/>
    </g>
</svg>
