<svg width="145px" height="145px" viewBox="0 0 145 145" version="1.1" xmlns="http://www.w3.org/2000/svg" xmlns:xlink="http://www.w3.org/1999/xlink">
    <defs>
        <linearGradient x1="96.6898623%" y1="-2.3705%" x2="3.22159165%" y2="102.469763%" id="linearGradient-1">
            <stop stop-color="#50BEBE" offset="0%"></stop>
            <stop stop-color="#009999" offset="50.12%"></stop>
            <stop stop-color="#00999F" offset="63.15%"></stop>
            <stop stop-color="#0099AF" offset="80.33%"></stop>
            <stop stop-color="#0099CB" offset="99.74%"></stop>
            <stop stop-color="#0099CB" offset="100%"></stop>
        </linearGradient>
        <linearGradient x1="91.9935182%" y1="-2.3705%" x2="7.92684222%" y2="102.469763%" id="linearGradient-2">
            <stop stop-color="#50BEBE" offset="0%"></stop>
            <stop stop-color="#009999" offset="50.12%"></stop>
            <stop stop-color="#00999F" offset="63.15%"></stop>
            <stop stop-color="#0099AF" offset="80.33%"></stop>
            <stop stop-color="#0099CB" offset="99.74%"></stop>
            <stop stop-color="#0099CB" offset="100%"></stop>
        </linearGradient>
        <linearGradient x1="80.6484999%" y1="-2.3705%" x2="19.293376%" y2="102.469763%" id="linearGradient-3">
            <stop stop-color="#50BEBE" offset="0%"></stop>
            <stop stop-color="#009999" offset="50.12%"></stop>
            <stop stop-color="#00999F" offset="63.15%"></stop>
            <stop stop-color="#0099AF" offset="80.33%"></stop>
            <stop stop-color="#0099CB" offset="99.74%"></stop>
            <stop stop-color="#0099CB" offset="100%"></stop>
        </linearGradient>
        <linearGradient x1="73.7584578%" y1="-2.3705%" x2="26.1964849%" y2="102.469763%" id="linearGradient-4">
            <stop stop-color="#50BEBE" offset="0%"></stop>
            <stop stop-color="#009999" offset="50.12%"></stop>
            <stop stop-color="#00999F" offset="63.15%"></stop>
            <stop stop-color="#0099AF" offset="80.33%"></stop>
            <stop stop-color="#0099CB" offset="99.74%"></stop>
            <stop stop-color="#0099CB" offset="100%"></stop>
        </linearGradient>
    </defs>
    <g id="bat_ball" stroke="none" stroke-width="1" fill="none" fill-rule="evenodd">
        <g id="ball" transform="translate(52.673759, 2.992908)">
            <path d="M33.5730737,5.6111071 L33.5925953,5.62827263 C33.6689987,5.70198341 33.7450655,5.77805025 33.8187763,5.85445366 C37.4033417,9.47065753 39.6213968,14.4624594 39.6213968,19.9752855 C39.6213968,25.4881116 37.4033417,30.48025 33.8187763,34.0964539 C30.2321914,37.7126578 25.2794326,39.950571 19.8106984,39.950571 C14.3419642,39.950571 9.38954201,37.7126578 5.80262051,34.0964539 C2.21839163,30.48025 7.10542736e-15,25.4881116 7.10542736e-15,19.9752855 C7.10542736e-15,14.4624594 2.21839163,9.47065753 5.80262051,5.85445366 C9.38954201,2.23791321 14.3419642,0 19.8106984,0 C25.1565813,0 30.0083664,2.13727611 33.5730737,5.6111071 Z" id="Fill-1" stroke="url(#linearGradient-1)" fill="url(#linearGradient-1)"></path>
            <path d="M9.06750331,7.45842048 C12.2320183,4.79305205 15.9757856,2.77862724 19.7003678,1.86212285 C14.7869888,1.8917418 10.3424642,3.91121529 7.11938454,7.16357735 C4.74616661,9.55631687 3.03398966,12.6201947 2.284765,16.0495973 C3.77580959,12.8608487 6.18605121,9.88582762 9.06750331,7.45842048 Z" id="Fill-20" fill="#FEFEFE"></path>
            <path d="M32.3275634,6.98926313 C30.6200986,5.39960091 29.0358216,4.37774733 27.4559202,3.79815843 C25.898233,3.2256377 24.3284289,3.07821613 22.6384662,3.23539849 C18.4275273,3.62616661 13.9392475,5.77589614 10.2614497,8.87578796 C6.66746003,11.9026421 3.87183556,15.8184013 2.89138118,19.8573482 C2.48142806,21.5526962 2.39761991,23.0390287 2.72443803,24.6404712 C3.0586609,26.279274 3.82269504,28.0725664 5.10001202,30.354908 C5.56684698,31.0280659 6.0804664,31.6692487 6.63043635,32.2710518 C6.58870056,32.1431518 6.54965741,32.0155884 6.51263373,31.8853324 C5.93035221,29.8412886 5.97949273,27.7336314 6.48335136,25.6623248 C7.55939416,21.2282342 10.5859118,16.9657988 14.4649838,13.6986272 C18.4154105,10.3695252 23.2749369,8.05554514 27.8685659,7.63044597 C29.7725929,7.45340546 31.669215,7.52980887 33.3739873,8.10232961 C33.0963097,7.77786753 32.8065152,7.46585888 32.50696,7.16125496 C32.4477221,7.10235365 32.3891574,7.04345234 32.3299195,6.98690708 L32.3275634,6.98926313 Z" id="Fill-22" fill="#FEFEFE"></path>
            <path d="M32.8657531,9.8929631 C31.4137517,9.38708499 29.7406179,9.32313499 28.033153,9.48031735 C23.8222142,9.87074889 19.3342709,12.0204784 15.6564731,15.1210434 C12.0624835,18.147561 9.26652242,22.0633201 8.28640462,26.1022671 C7.85659334,27.8709893 7.8125015,29.6619257 8.30121409,31.3791513 C8.73338142,32.8974588 9.58829186,34.3713379 10.9692752,35.7422238 C13.5780983,37.2359611 16.5975478,38.0885154 19.8108667,38.0885154 C24.7683375,38.0885154 29.2566174,36.0616372 32.5022479,32.7870609 C35.7498978,29.509792 37.759274,24.9821325 37.759274,19.9751845 C37.759274,17.4131458 37.2335377,14.9736218 36.2827022,12.764991 C35.4277918,11.261493 34.2363024,10.3695588 32.8657531,9.8929631 Z" id="Fill-24" fill="#FEFEFE"></path>
        </g>
        <g id="bats" transform="translate(7.000000, 2.000000)">
            <path d="M118.554168,21.28 L99.8087199,48.8789304 C99.7966748,48.8978119 99.7826764,48.917019 99.7683525,48.9332961 C98.3805604,50.682116 97.8411348,51.9654087 97.9169864,53.0846274 C97.9908848,54.1989629 98.69178,55.280093 99.7732357,56.5728264 C100.013161,56.8580026 100.16519,57.0337961 100.305174,57.19787 C102.013626,59.1794536 102.643228,59.9063923 100.80879,62.5725939 L82.5698872,89.1141588 L103.62702,118.632494 C103.636786,118.646818 103.648506,118.658863 103.657947,118.672861 C107.861365,124.79894 102.729171,128.35355 97.1236368,132.235982 C96.7577258,132.487953 96.3918149,132.744481 95.8263458,133.13904 L95.824067,133.13904 C95.2891989,133.512113 94.9089641,133.780686 94.5287292,134.049259 C88.9638879,137.988662 83.869457,141.595684 79.5498198,135.548387 L65.1051273,114.52446 L50.658156,135.546109 C46.3407976,141.595684 41.2463667,137.988662 35.6815254,134.049259 C35.3012905,133.780686 34.9210557,133.509834 34.3865132,133.13904 L34.3839088,133.136761 C33.8184397,132.742202 33.45025,132.487953 33.084339,132.235982 C27.4788048,128.35355 22.3466109,124.79894 26.5500291,118.672861 C26.5594698,118.658863 26.5689106,118.644539 26.5809557,118.632494 L47.6380886,89.1141588 L29.3988606,62.5725939 C27.5667015,59.9063923 28.1943495,59.1771747 29.902802,57.19787 C30.0427857,57.0337961 30.1948146,56.8580026 30.4347401,56.5728264 C31.5161958,55.280093 32.217091,54.1989629 32.2906639,53.0846274 C32.3665155,51.9654087 31.8274154,50.682116 30.4373445,48.9359005 C30.4252994,48.917019 30.411301,48.8978119 30.3992559,48.8789304 L11.6538077,21.28 C11.3712359,21.3203674 11.083781,21.3203674 10.7914429,21.2848832 C10.0286943,21.1898244 9.2516219,20.842795 8.48171143,20.3128101 C7.1297291,19.3837089 5.76114405,17.8725358 4.51594001,16.2304941 C2.63885595,13.7521311 1.020579,10.9459458 0.222346239,9.46797814 C0.184257644,9.39700965 0.155609813,9.32311127 0.139007092,9.24725962 C-0.217137542,8.31587955 0.129566329,7.25363097 0.968492036,6.151015 C1.76216719,5.1125311 3.04057668,3.99363795 4.55891175,2.92422742 C4.57291013,2.91250785 4.58951285,2.90046274 4.60644111,2.88874317 L4.60871992,2.89102197 L4.61099872,2.88874317 C6.23611208,1.7503174 7.8377863,0.890231368 9.14940123,0.529203581 C10.489664,0.158409487 11.6017207,0.27723288 12.3048948,1.04942216 C12.3286595,1.07090803 12.3501453,1.09467271 12.3716312,1.11843739 L12.5304965,1.30139286 C13.5474945,2.47530287 15.3226834,4.51873968 16.893431,6.75945588 C19.1575863,9.99340542 20.9233345,13.5955447 19.5427043,15.8339821 L39.0007674,42.8007069 C39.024532,42.8316335 39.0460179,42.8622346 39.0671782,42.8957656 C40.2316475,44.7988932 41.2535287,45.7445971 42.3297756,46.0558168 C43.4014649,46.3673619 44.6583886,46.0795814 46.2431345,45.5046715 C46.4951052,45.4118916 46.7659574,45.309671 47.0156493,45.2146123 C49.4604813,44.285511 50.3589815,43.9459691 52.2383444,46.5809185 L65.1100105,64.6231927 L77.981351,46.5809185 C79.8610394,43.9459691 80.7588885,44.285511 83.204046,45.2146123 C83.4537379,45.309671 83.7245902,45.4118916 83.9762353,45.5046715 C85.5613068,46.0795814 86.8159516,46.3673619 87.8899198,46.0558168 C88.9661667,45.7445971 89.9880479,44.7988932 91.1521916,42.8957656 C91.174003,42.8622346 91.1951634,42.8316335 91.218928,42.8007069 L110.677317,15.8339821 C109.296686,13.5955447 111.064388,9.99340542 113.326264,6.75945588 C114.894733,4.51873968 116.669597,2.47302407 117.689199,1.30139286 L117.84839,1.11843739 C117.86955,1.09467271 117.891036,1.07090803 117.914801,1.04942216 C118.617975,0.274954075 119.730031,0.158409487 121.070294,0.526599233 C122.381909,0.887952564 123.981304,1.7480386 125.608697,2.88646436 C125.627904,2.89818393 125.644181,2.9099035 125.658505,2.92194861 C127.174561,3.9887548 128.455249,5.10797349 129.24925,6.14873619 C130.08785,7.24874782 130.434554,8.3109964 130.078084,9.24465527 C130.061807,9.32083246 130.033159,9.3944053 129.995396,9.46569934 C129.194559,10.943667 127.578561,13.7498523 125.701477,16.2282153 C124.456273,17.8725358 123.087687,19.3837089 121.73538,20.3105313 C120.965795,20.8401907 120.188722,21.1872201 119.426299,21.2822788 C119.133636,21.3180886 118.846181,21.3180886 118.563283,21.2777212 L118.554168,21.28 Z" id="Fill-3" stroke="url(#linearGradient-2)" fill="url(#linearGradient-2)"></path>
            <path d="M81.4600116,87.5577026 L99.3287711,61.5555633 C100.37637,60.0300663 99.9915777,59.5834205 98.9436531,58.3668643 C98.7466992,58.1386583 98.5373747,57.8938496 98.390229,57.7203348 C97.0786141,56.1521916 96.2253645,54.7858854 96.1182607,53.1988606 C96.0114824,51.6186722 96.6625695,49.945704 98.3566981,47.8166492 L116.945234,20.450808 C116.776603,20.1584699 116.778882,19.7831182 116.985927,19.485897 C117.268499,19.0796186 117.829411,18.9800023 118.233085,19.2648529 C118.525423,19.4692943 118.850966,19.5360307 119.195717,19.4930589 C119.656686,19.4360888 120.169743,19.1961632 120.711448,18.8230903 L120.716331,18.820486 C120.124818,18.7137077 119.573347,18.5021044 119.148187,18.2052087 C118.741584,17.9226369 118.641967,17.3617254 118.927143,16.9577258 C119.209715,16.5514475 119.770627,16.4518312 120.174626,16.7366818 C120.55714,17.0029764 121.175022,17.1406813 121.797461,17.0957563 C122.310517,17.0573422 122.800135,16.891315 123.111354,16.5631671 C123.498751,16.1142425 123.881591,15.6366702 124.254338,15.1447739 C125.385602,13.6502035 126.421156,12.0319265 127.226876,10.6799442 C126.956024,10.6444599 126.673452,10.5871643 126.380788,10.5041507 C125.183439,10.166562 123.75528,9.41585862 122.30596,8.3988606 C122.151327,8.28947797 122.030224,8.20418556 121.944606,8.14233229 C121.915959,8.12345076 121.887962,8.10196489 121.861593,8.08047901 C120.355303,7.01855598 119.086334,5.89445413 118.294938,4.85369143 C118.074219,4.56135333 117.888659,4.27389838 117.738909,3.99132659 C116.831294,5.06985234 115.759605,6.40067434 114.787857,7.78814091 C114.369859,8.38714103 113.96586,8.99525637 113.601902,9.59881409 C113.585625,9.67727008 113.559581,9.75572608 113.521167,9.82929892 C113.314773,10.2332985 113.324213,10.7561214 113.466476,11.2597372 C113.635433,11.8610162 113.975301,12.3932799 114.357814,12.6592489 C114.764093,12.9421463 114.863709,13.5030578 114.578533,13.9067318 C114.295961,14.3130101 113.735375,14.412952 113.33105,14.1277758 C112.868127,13.8022323 112.447525,13.3008952 112.133701,12.7188234 C111.808157,13.8735263 111.891496,14.8192303 112.647083,15.3492152 C113.053361,15.631787 113.152978,16.1926985 112.868127,16.5963725 C112.67801,16.8675503 112.364186,17.0029764 112.057524,16.9766074 L92.6684758,43.8463202 C91.249757,46.1583304 89.9026578,47.336798 88.3843228,47.7762818 C86.8562214,48.21837 85.2809162,47.8856645 83.3585816,47.1893268 C83.0473619,47.0776654 82.79767,46.9826067 82.5652319,46.8924311 C81.063174,46.3220788 80.5120288,46.1130799 79.4380607,47.6193698 L66.2076456,66.1675387 L81.462616,87.5554238 L81.4600116,87.5577026 Z" id="Fill-6" fill="#FEFEFE"></path>
            <path d="M13.2578584,20.4554959 L31.8463946,47.8216626 C33.5405232,49.9503918 34.1890059,51.6207557 34.084832,53.2035484 C33.9777282,54.7905732 33.1270829,56.1568794 31.8131892,57.7250227 C31.6679967,57.8985374 31.456719,58.1433461 31.2594396,58.3715521 C30.2115149,59.5858296 29.8267225,60.0324753 30.8746471,61.5602511 L81.0086781,134.510327 L81.0112824,134.507722 C84.2924358,139.100816 88.690529,135.988294 93.4926218,132.587667 C93.9727985,132.247799 94.455254,131.905978 94.7928427,131.67061 C95.0969004,131.454449 95.6031206,131.105141 96.1018533,130.758112 C100.937477,127.407943 105.366497,124.340021 102.172915,119.685074 L102.165753,119.675959 L50.7699151,47.626662 C49.695947,46.1200465 49.1444762,46.329371 47.6430694,46.8993977 C47.4099802,46.9872945 47.1606139,47.0823532 46.8493943,47.196619 C44.9270596,47.8926311 43.3514289,48.2253366 41.8236531,47.7832485 C40.3030392,47.3437647 38.9556145,46.1652971 37.5395001,43.8532868 L18.1501267,16.9838995 C17.8415115,17.009943 17.5276875,16.8745169 17.3401744,16.6036647 C17.0572771,16.1973864 17.1546146,15.6390792 17.5608929,15.3561818 C18.316805,14.826197 18.3998186,13.8808185 18.0742751,12.72579 C17.7607767,13.3078619 17.3401744,13.8091989 16.8766004,14.1347425 C16.4703221,14.4176398 15.9120149,14.3203023 15.6291175,13.914024 C15.3465458,13.5077456 15.4438833,12.9491129 15.8501616,12.6665411 C16.2303965,12.4002465 16.5702639,11.865704 16.7411743,11.2667039 C16.8837624,10.7653668 16.8932031,10.2405906 16.686483,9.83626555 C16.6487199,9.76041391 16.6223509,9.68456226 16.6057482,9.60578072 C16.242116,9.00254854 15.8381165,8.39410766 15.4201186,7.79543309 C14.4483711,6.40764097 13.3766818,5.07714452 12.4690664,3.99829322 C12.3193164,4.28086502 12.1337565,4.57092431 11.913038,4.86098361 C11.1216417,5.90402511 9.85527729,7.02552261 8.34638298,8.08744565 C8.3203395,8.10893152 8.29169166,8.13041739 8.26304383,8.14929892 C8.17775142,8.21115219 8.05632368,8.29677014 7.90201604,8.40615277 C6.4526962,9.42087199 5.02453668,10.1738542 3.82686199,10.5114429 C3.53452389,10.5944565 3.2519521,10.6540309 2.98109987,10.6872364 C3.78649459,12.0392187 4.82009534,13.6571701 5.95363795,15.1517405 C6.3263853,15.6436368 6.70922451,16.1215347 7.09662132,16.5704592 C7.40784095,16.8982816 7.89713289,17.0646343 8.41051506,17.1027229 C9.03523311,17.1502523 9.65311475,17.0122218 10.0333496,16.743974 C10.439628,16.4610766 10.9982607,16.5584141 11.2808325,16.9646925 C11.5634043,17.3712964 11.4663923,17.9296035 11.0597884,18.2121753 C10.6346285,18.5093966 10.0857621,18.7232787 9.49164516,18.8277782 L9.49620277,18.830057 C10.0382328,19.2008511 10.5512894,19.443381 11.012259,19.5000256 C11.3570097,19.5429973 11.6825532,19.4765864 11.9745657,19.2721451 C12.3811696,18.9892478 12.9391513,19.0865853 13.2220486,19.4928636 C13.4287687,19.7878061 13.4313731,20.1654366 13.262416,20.4577747 L13.2578584,20.4554959 Z" id="Fill-8" fill="#FEFEFE"></path>
            <path d="M48.7192187,90.6845158 L28.0397163,119.673517 L28.0325544,119.682958 C24.8366934,124.337905 29.2657133,127.405502 34.1036159,130.755996 C34.6049529,131.1027 35.1085688,131.452008 35.412952,131.66589 C35.7502151,131.903537 36.2326706,132.245683 36.7128473,132.585551 C41.5149401,135.985527 45.9130334,139.098375 49.1945123,134.505281 L49.1967911,134.50756 L64.0168353,112.944206 L48.7192187,90.6871201 L48.7192187,90.6845158 Z" id="Fill-10" stroke="url(#linearGradient-3)" fill="#FEFEFE"></path>
            <path d="M124.568162,4.35954889 L124.568162,4.35727008 C123.101914,3.33050576 121.692961,2.56808278 120.580905,2.25881642 C119.875126,2.06414138 119.366627,2.05470062 119.190834,2.30634577 C118.996159,2.58435996 119.22176,3.11206604 119.723097,3.76998954 C120.397624,4.66132775 121.526609,5.65195675 122.892915,6.614589 C122.909517,6.62402976 122.92612,6.63347053 122.942723,6.64519009 C122.954768,6.6549564 122.964209,6.66179281 122.975928,6.67155912 C123.140002,6.79266132 123.261105,6.87827927 123.335003,6.93036624 C124.622853,7.83114522 125.860895,8.49167306 126.868127,8.7745704 C127.581067,8.97640739 128.106169,8.98584816 128.315168,8.73615626 C128.329492,8.71499593 128.343816,8.69351006 128.360093,8.67462853 C128.519609,8.38001163 128.293682,7.86890827 127.813831,7.24191141 C127.131817,6.34829438 125.991438,5.35733984 124.620249,4.39275433 C124.603646,4.38331357 124.587043,4.37126846 124.570441,4.35954889 L124.568162,4.35954889 Z" id="Fill-12" fill="#FEFEFE"></path>
            <path d="M51.8843483,71.7538984 C51.601451,71.3453412 51.7013929,70.7844297 52.10995,70.5015324 C52.5188327,70.2189606 53.0794187,70.3185769 53.362316,70.7274596 L87.4551889,119.661863 C87.7377607,120.070094 87.6381444,120.631006 87.2295873,120.913903 C86.8207046,121.196475 86.259793,121.096859 85.9772213,120.688301 L51.8843483,71.7538984 Z" id="Fill-14" fill="url(#linearGradient-4)"></path>
            <path d="M5.58528543,4.39275433 C4.21409604,5.35733984 3.07371701,6.34829438 2.39170329,7.24191141 C1.91152657,7.86890827 1.68592489,8.38001163 1.84511568,8.67462853 C1.8617184,8.69351006 1.87604232,8.71499593 1.89036624,8.73615626 C2.09936519,8.98584816 2.62446692,8.97640739 3.33740728,8.7745704 C4.34496454,8.48939426 5.58528543,7.83114522 6.87053133,6.93036624 C6.94442972,6.87827927 7.06553191,6.79266132 7.22960586,6.67155912 C7.24132543,6.66439716 7.25076619,6.6549564 7.2628113,6.64779444 C7.27941402,6.63347053 7.29601674,6.62402976 7.31261946,6.614589 C8.6766469,5.65195675 9.80758516,4.66132775 10.4824369,3.76998954 C10.9814952,3.10978723 11.2070968,2.58208115 11.0147006,2.30634577 C10.8389071,2.05470062 10.3304081,2.06414138 9.62462969,2.25881642 C8.51257296,2.56547843 7.10362051,3.33050576 5.6373724,4.35727008 L5.6373724,4.35954889 C5.61849087,4.37126846 5.60188815,4.38331357 5.58528543,4.39275433 Z" id="Fill-16" fill="#FEFEFE"></path>
        </g>
    </g>
</svg>