<svg xmlns="http://www.w3.org/2000/svg" xmlns:xlink="http://www.w3.org/1999/xlink" width="400" height="427" viewBox="0 0 400 427">
    <defs>
        <linearGradient id="a" x1="96.69%" x2="3.222%" y1="-2.37%" y2="102.47%">
            <stop offset="0%" stop-color="#50BEBE"/>
            <stop offset="50.12%" stop-color="#099"/>
            <stop offset="63.15%" stop-color="#00999F"/>
            <stop offset="80.33%" stop-color="#0099AF"/>
            <stop offset="99.74%" stop-color="#0099CB"/>
            <stop offset="100%" stop-color="#0099CB"/>
        </linearGradient>
        <path id="b" d="M0 .722h400V426H0z"/>
        <linearGradient id="c" x1="91.994%" x2="7.927%" y1="-2.37%" y2="102.47%">
            <stop offset="0%" stop-color="#50BEBE"/>
            <stop offset="50.12%" stop-color="#099"/>
            <stop offset="63.15%" stop-color="#00999F"/>
            <stop offset="80.33%" stop-color="#0099AF"/>
            <stop offset="99.74%" stop-color="#0099CB"/>
            <stop offset="100%" stop-color="#0099CB"/>
        </linearGradient>
        <linearGradient id="e" x1="75.309%" x2="24.643%" y1="-2.37%" y2="102.47%">
            <stop offset="0%" stop-color="#50BEBE"/>
            <stop offset="50.12%" stop-color="#099"/>
            <stop offset="63.15%" stop-color="#00999F"/>
            <stop offset="80.33%" stop-color="#0099AF"/>
            <stop offset="99.74%" stop-color="#0099CB"/>
            <stop offset="100%" stop-color="#0099CB"/>
        </linearGradient>
        <linearGradient id="f" x1="77.056%" x2="22.893%" y1="-2.37%" y2="102.47%">
            <stop offset="0%" stop-color="#50BEBE"/>
            <stop offset="50.12%" stop-color="#099"/>
            <stop offset="63.15%" stop-color="#00999F"/>
            <stop offset="80.33%" stop-color="#0099AF"/>
            <stop offset="99.74%" stop-color="#0099CB"/>
            <stop offset="100%" stop-color="#0099CB"/>
        </linearGradient>
        <linearGradient id="g" x1="80.648%" x2="19.293%" y1="-2.37%" y2="102.47%">
            <stop offset="0%" stop-color="#50BEBE"/>
            <stop offset="50.12%" stop-color="#099"/>
            <stop offset="63.15%" stop-color="#00999F"/>
            <stop offset="80.33%" stop-color="#0099AF"/>
            <stop offset="99.74%" stop-color="#0099CB"/>
            <stop offset="100%" stop-color="#0099CB"/>
        </linearGradient>
        <linearGradient id="h" x1="97.469%" x2="2.441%" y1="21.856%" y2="78.197%">
            <stop offset="0%" stop-color="#50BEBE"/>
            <stop offset="50.12%" stop-color="#099"/>
            <stop offset="63.15%" stop-color="#00999F"/>
            <stop offset="80.33%" stop-color="#0099AF"/>
            <stop offset="99.74%" stop-color="#0099CB"/>
            <stop offset="100%" stop-color="#0099CB"/>
        </linearGradient>
        <linearGradient id="i" x1="73.758%" x2="26.196%" y1="-2.37%" y2="102.47%">
            <stop offset="0%" stop-color="#50BEBE"/>
            <stop offset="50.12%" stop-color="#099"/>
            <stop offset="63.15%" stop-color="#00999F"/>
            <stop offset="80.33%" stop-color="#0099AF"/>
            <stop offset="99.74%" stop-color="#0099CB"/>
            <stop offset="100%" stop-color="#0099CB"/>
        </linearGradient>
        <linearGradient id="j" x1="97.469%" x2="2.441%" y1="21.85%" y2="78.204%">
            <stop offset="0%" stop-color="#50BEBE"/>
            <stop offset="50.12%" stop-color="#099"/>
            <stop offset="63.15%" stop-color="#00999F"/>
            <stop offset="80.33%" stop-color="#0099AF"/>
            <stop offset="99.74%" stop-color="#0099CB"/>
            <stop offset="100%" stop-color="#0099CB"/>
        </linearGradient>
        <linearGradient id="k" x1="97.469%" x2="2.441%" y1="3.421%" y2="96.667%">
            <stop offset="0%" stop-color="#50BEBE"/>
            <stop offset="50.12%" stop-color="#099"/>
            <stop offset="63.15%" stop-color="#00999F"/>
            <stop offset="80.33%" stop-color="#0099AF"/>
            <stop offset="99.74%" stop-color="#0099CB"/>
            <stop offset="100%" stop-color="#0099CB"/>
        </linearGradient>
        <linearGradient id="l" x1="97.469%" x2="2.441%" y1="1.511%" y2="98.581%">
            <stop offset="0%" stop-color="#50BEBE"/>
            <stop offset="50.12%" stop-color="#099"/>
            <stop offset="63.15%" stop-color="#00999F"/>
            <stop offset="80.33%" stop-color="#0099AF"/>
            <stop offset="99.74%" stop-color="#0099CB"/>
            <stop offset="100%" stop-color="#0099CB"/>
        </linearGradient>
    </defs>
    <g fill="none" fill-rule="evenodd">
        <path fill="url(#a)" d="M240.87 29.004l.059.051c.227.219.453.445.672.672a59.413 59.413 0 0 1 17.24 41.954 59.416 59.416 0 0 1-17.24 41.955c-10.656 10.744-25.371 17.393-41.62 17.393-16.247 0-30.961-6.649-41.618-17.393a59.42 59.42 0 0 1-17.24-41.955 59.418 59.418 0 0 1 17.24-41.954c10.657-10.745 25.37-17.394 41.619-17.394 15.883 0 30.298 6.35 40.889 16.671z"/>
        <g transform="translate(0 .278)">
            <mask id="d" fill="#fff">
                <use xlink:href="#b"/>
            </mask>
            <path fill="url(#c)" d="M364.173 65.09l-57.582 84.778a1.39 1.39 0 0 1-.124.167l.007.008c-4.27 5.364-5.927 9.306-5.694 12.744.227 3.423 2.38 6.744 5.702 10.715.737.876 1.204 1.416 1.634 1.92 5.248 6.087 7.182 8.32 1.547 16.51l-56.026 81.53 64.683 90.674c.03.044.066.08.095.124 12.912 18.818-2.853 29.737-20.072 41.663-1.124.774-2.248 1.562-3.985 2.774h-.007a748.182 748.182 0 0 0-3.979 2.796c-17.094 12.1-32.743 23.18-46.012 4.605l.007-.007-44.378-64.574-44.378 64.574.007.007c-13.269 18.576-28.918 7.496-46.012-4.605-1.168-.825-2.336-1.657-3.978-2.796l-.008-.007-.007.007c-1.73-1.22-2.861-2-3.985-2.774-17.219-11.926-32.984-22.845-20.072-41.663.029-.043.058-.087.095-.124l64.683-90.674-56.027-81.53c-5.628-8.19-3.7-10.43 1.548-16.51.43-.504.897-1.044 1.634-1.92 3.322-3.971 5.475-7.292 5.701-10.715.233-3.438-1.423-7.38-5.693-12.744l.007-.008a1.39 1.39 0 0 1-.124-.167L35.798 65.09c-.868.124-1.751.124-2.649.015-2.343-.292-4.73-1.358-7.095-2.986-4.153-2.854-8.357-7.496-12.182-12.54C8.106 41.966 3.135 33.346.683 28.806a2.624 2.624 0 0 1-.256-.678c-1.094-2.861-.029-6.124 2.548-9.511 2.438-3.19 6.365-6.627 11.029-9.912.043-.036.094-.073.146-.11l.007.008.007-.007c4.992-3.497 9.912-6.14 13.941-7.248 4.117-1.14 7.533-.774 9.693 1.598.073.066.139.139.205.212l.488.562c3.124 3.606 8.577 9.883 13.402 16.766 6.955 9.934 12.379 20.999 8.138 27.875l59.771 82.836c.073.095.139.189.204.292 3.577 5.846 6.716 8.75 10.022 9.707 3.292.957 7.153.073 12.021-1.693.774-.285 1.606-.6 2.373-.891 7.51-2.854 10.27-3.897 16.043 4.197l39.539 55.422 39.538-55.422c5.774-8.094 8.532-7.051 16.043-4.197.767.292 1.599.606 2.372.89 4.869 1.767 8.723 2.65 12.022 1.694 3.306-.956 6.445-3.861 10.021-9.707.067-.103.132-.197.205-.292l59.772-82.836c-4.241-6.876 1.189-17.941 8.137-27.875 4.818-6.883 10.27-13.167 13.402-16.766l.489-.562a2.72 2.72 0 0 1 .204-.212c2.16-2.38 5.576-2.737 9.693-1.606 4.029 1.11 8.942 3.752 13.941 7.249l.008.007a.993.993 0 0 1 .145.102c4.657 3.277 8.591 6.715 11.03 9.912 2.576 3.379 3.641 6.642 2.546 9.51-.05.234-.138.46-.254.679-2.46 4.54-7.424 13.16-13.19 20.773-3.825 5.05-8.029 9.693-12.183 12.54-2.364 1.627-4.751 2.693-7.093 2.985-.899.11-1.782.11-2.651-.014l-.028.007z" mask="url(#d)"/>
        </g>
        <path fill="#FEFEFE" stroke="url(#e)" d="M250.228 268.959l54.889-79.874c3.218-4.686 2.036-6.058-1.183-9.794a324.796 324.796 0 0 1-1.7-1.987c-4.03-4.816-6.65-9.013-6.98-13.888-.327-4.855 1.673-9.993 6.877-16.534l57.1-84.061a2.761 2.761 0 0 1 .125-2.965 2.745 2.745 0 0 1 3.83-.678c.899.628 1.899.833 2.958.7 1.416-.175 2.992-.911 4.656-2.057l.015-.008c-1.817-.329-3.511-.979-4.817-1.89a2.744 2.744 0 0 1-.68-3.833 2.746 2.746 0 0 1 3.833-.679c1.175.819 3.073 1.242 4.985 1.103 1.576-.117 3.08-.628 4.036-1.636a88.563 88.563 0 0 0 3.51-4.356c3.476-4.591 6.657-9.563 9.132-13.715-.832-.11-1.7-.285-2.6-.54-3.677-1.038-8.064-3.344-12.516-6.468-.475-.335-.847-.598-1.11-.787a3.183 3.183 0 0 1-.255-.19c-4.627-3.262-8.525-6.715-10.956-9.912a19.842 19.842 0 0 1-1.708-2.65c-2.788 3.313-6.08 7.402-9.065 11.664a100.58 100.58 0 0 0-3.643 5.561c-.05.242-.13.483-.248.709-.634 1.24-.605 2.847-.168 4.393.519 1.847 1.563 3.482 2.738 4.3a2.745 2.745 0 0 1 .678 3.831 2.745 2.745 0 0 1-3.832.68c-1.422-1-2.714-2.54-3.678-4.329-1 3.547-.744 6.453 1.577 8.08a2.745 2.745 0 0 1 .679 3.831 2.757 2.757 0 0 1-2.49 1.169l-59.56 82.537c-4.357 7.102-8.495 10.722-13.16 12.072-4.693 1.358-9.532.337-15.437-1.803a97.598 97.598 0 0 1-2.437-.912c-4.614-1.751-6.307-2.394-9.606 2.233l-40.641 56.976 46.86 65.7-.008.007z"/>
        <path fill="#FEFEFE" stroke="url(#f)" d="M40.725 62.835l57.1 84.063c5.204 6.539 7.196 11.67 6.876 16.532-.329 4.875-2.942 9.072-6.978 13.889-.446.533-1.095 1.285-1.7 1.986-3.22 3.73-4.402 5.102-1.183 9.795l154.001 224.087.008-.008c10.08 14.109 23.59 4.548 38.34-5.898 1.475-1.044 2.957-2.094 3.994-2.817.934-.664 2.49-1.737 4.021-2.803 14.854-10.291 28.46-19.715 18.65-34.014l-.023-.028-157.877-221.32c-3.299-4.628-4.993-3.985-9.605-2.234-.716.27-1.482.562-2.438.913-5.905 2.138-10.745 3.16-15.438 1.802-4.67-1.35-8.81-4.97-13.16-12.072L55.753 52.17a2.744 2.744 0 0 1-2.488-1.168 2.75 2.75 0 0 1 .678-3.832c2.322-1.628 2.577-4.532 1.577-8.08-.963 1.788-2.255 3.328-3.679 4.328a2.751 2.751 0 1 1-3.153-4.51c1.168-.818 2.212-2.46 2.737-4.3.438-1.54.467-3.152-.168-4.394a2.928 2.928 0 0 1-.248-.708 99.966 99.966 0 0 0-3.642-5.561c-2.985-4.263-6.277-8.35-9.065-11.664-.46.868-1.03 1.759-1.708 2.65-2.43 3.204-6.32 6.649-10.956 9.91a3.03 3.03 0 0 1-.256.19c-.262.19-.635.454-1.109.79-4.452 3.117-8.839 5.43-12.518 6.467-.898.255-1.766.438-2.598.54 2.474 4.153 5.65 9.123 9.131 13.714A88.594 88.594 0 0 0 21.8 50.9c.956 1.007 2.46 1.518 4.036 1.635 1.92.146 3.817-.278 4.985-1.102a2.75 2.75 0 0 1 3.832.678 2.75 2.75 0 0 1-.679 3.832c-1.306.913-2.992 1.57-4.817 1.89l.014.008c1.665 1.139 3.241 1.884 4.657 2.058 1.06.132 2.06-.072 2.956-.7a2.75 2.75 0 0 1 3.832.678 2.76 2.76 0 0 1 .124 2.964l-.014-.007z"/>
        <path fill="#FEFEFE" stroke="url(#g)" d="M149.655 278.563l-63.523 89.048-.022.03c-9.817 14.298 3.788 23.721 18.649 34.013a773.513 773.513 0 0 1 4.022 2.795c1.036.73 2.518 1.781 3.993 2.825 14.751 10.444 28.261 20.006 38.341 5.897l.007.007 45.524-66.238-46.991-68.369v-.008z"/>
        <path fill="#FEFEFE" stroke="url(#h)" d="M382.647 13.392v-.007c-4.504-3.154-8.832-5.496-12.248-6.446-2.168-.598-3.73-.627-4.27.146-.598.854.095 2.475 1.635 4.496 2.072 2.738 5.54 5.78 9.737 8.738.05.029.102.058.153.094.037.03.066.05.102.08.504.373.876.636 1.103.796 3.956 2.767 7.759 4.796 10.853 5.665 2.19.62 3.803.649 4.445-.118.044-.065.088-.131.138-.19.49-.904-.204-2.474-1.678-4.4-2.095-2.745-5.598-5.79-9.81-8.752-.051-.03-.102-.066-.153-.102h-.007z"/>
        <path fill="url(#i)" d="M159.378 220.413a2.764 2.764 0 1 1 4.54-3.153l104.726 150.316a2.764 2.764 0 0 1-4.54 3.153L159.378 220.413z"/>
        <path fill="#FEFEFE" stroke="url(#j)" d="M17.157 13.494c-4.212 2.963-7.715 6.007-9.81 8.752-1.475 1.926-2.168 3.496-1.68 4.4.052.059.096.125.14.19.642.767 2.255.738 4.445.118 3.095-.876 6.905-2.898 10.853-5.665.227-.16.599-.423 1.103-.795.036-.022.065-.051.102-.073a.904.904 0 0 1 .153-.102c4.19-2.957 7.664-6 9.737-8.738 1.533-2.028 2.226-3.65 1.635-4.496-.54-.773-2.102-.744-4.27-.146-3.416.942-7.744 3.292-12.248 6.446v.007c-.058.036-.11.073-.16.102z"/>
        <path d="M243.105 84.002a1.722 1.722 0 1 1 3.32.927 48.551 48.551 0 0 1-6.51 14.073 48.801 48.801 0 0 1-10.621 11.327 1.716 1.716 0 0 1-2.416-.313 1.716 1.716 0 0 1 .315-2.416 45.548 45.548 0 0 0 9.86-10.526 45.101 45.101 0 0 0 6.052-13.08v.008z"/>
        <path fill="#FEFEFE" d="M168.063 34.492c9.402-7.918 20.525-13.903 31.59-16.626-14.597.087-27.802 6.087-37.378 15.75a53.797 53.797 0 0 0-14.364 26.401c4.43-9.474 11.59-18.313 20.152-25.525z"/>
        <path fill="#FEFEFE" stroke="url(#k)" d="M237.17 33.099c-5.073-4.723-9.78-7.76-14.474-9.481-4.628-1.701-9.292-2.14-14.313-1.672-12.51 1.16-25.846 7.548-36.773 16.758-10.678 8.993-18.984 20.627-21.897 32.627-1.218 5.037-1.467 9.453-.496 14.21.993 4.87 3.263 10.198 7.058 16.979 1.387 2 2.913 3.905 4.547 5.693-.124-.38-.24-.76-.35-1.146-1.73-6.073-1.584-12.335-.087-18.49 3.197-13.173 12.19-25.837 23.714-35.544 11.737-9.891 26.175-16.766 39.823-18.03 5.657-.525 11.292-.298 16.357 1.403a54.9 54.9 0 0 0-2.576-2.796c-.176-.175-.35-.35-.526-.518l-.007.007z"/>
        <path fill="#FEFEFE" stroke="url(#l)" d="M238.77 41.726c-4.315-1.503-9.286-1.693-14.359-1.226-12.51 1.16-25.845 7.547-36.772 16.759-10.678 8.992-18.985 20.626-21.897 32.626-1.277 5.255-1.408 10.576.044 15.678 1.284 4.51 3.824 8.89 7.927 12.963a52.71 52.71 0 0 0 26.27 6.97c14.728 0 28.063-6.021 37.706-15.75 9.65-9.737 15.62-23.19 15.62-38.065 0-7.612-1.563-14.86-4.388-21.422-2.54-4.467-6.08-7.117-10.152-8.533z"/>
    </g>
</svg>
