<svg xmlns="http://www.w3.org/2000/svg" width="250" height="88" viewBox="0 0 250 88">
    <g fill="#FFF" fill-rule="evenodd">
        <path d="M8.6 33.652v-5.849c3.329 1.048 6.275 1.572 8.837 1.572 3.538 0 5.307-.935 5.307-2.804a2.29 2.29 0 0 0-.773-1.757c-.528-.503-1.879-1.2-4.052-2.093-3.897-1.602-6.439-2.969-7.621-4.1C8.766 17.129 8 15.247 8 12.973c0-2.928 1.116-5.16 3.347-6.693C13.553 4.759 16.426 4 19.97 4c1.953 0 4.779.359 8.476 1.079v5.626c-2.751-1.098-5.304-1.647-7.663-1.647-3.322 0-4.982.913-4.982 2.741 0 .683.334 1.24 1.004 1.673.557.349 2.092 1.088 4.602 2.218 3.614 1.605 6.02 3 7.218 4.186 1.423 1.408 2.135 3.229 2.135 5.462 0 3.209-1.395 5.656-4.185 7.343-2.26 1.368-5.19 2.049-8.79 2.049-3.039 0-6.102-.358-9.185-1.078M35.432 34.132h8.272V4.515h-8.272zM51.291 34.131V4.515h21.218v5.356H59.264v6.688h11.529v4.886H59.264v7.028H72.85v5.658H51.291M78.25 34.131V4.515h10.726l7.452 18.923 7.639-18.923h10.188v29.616h-7.844V13.162l-8.686 21.27h-5.128l-8.518-21.27v20.969H78.25M121.843 34.131V4.515h21.217v5.356h-13.243v6.688h11.528v4.886h-11.528v7.028h13.587v5.658h-21.561M148.847 34.131V4.515h9.588l10.172 19.826V4.515h5.827v29.616h-9.316l-10.442-20.093v20.093h-5.829M180.307 33.652v-5.849c3.301 1.048 6.246 1.572 8.839 1.572 3.538 0 5.305-.935 5.305-2.804 0-.697-.25-1.283-.75-1.757-.53-.503-1.887-1.2-4.073-2.093-3.886-1.589-6.43-2.956-7.623-4.1-1.531-1.479-2.296-3.367-2.296-5.668 0-2.915 1.114-5.14 3.347-6.673C185.259 4.759 188.135 4 191.68 4c1.992 0 4.574.316 7.741.952l.732.127v5.626c-2.751-1.098-5.312-1.647-7.683-1.647-3.31 0-4.96.913-4.96 2.741 0 .683.333 1.24 1.001 1.673.531.336 2.072 1.075 4.624 2.218 3.587 1.605 5.987 3 7.196 4.186 1.425 1.408 2.136 3.229 2.136 5.462 0 3.209-1.388 5.656-4.163 7.343-2.274 1.368-5.211 2.049-8.81 2.049-3.043 0-6.106-.358-9.187-1.078M77.398 63.942l.016.252c.048.787.078 1.552.092 2.279l.001.053-.045.03c-3.428 2.283-5.56 4.749-6.514 7.532-.74 2.157-.617 4.229.33 5.543.644.897 1.61 1.369 2.79 1.369 2.036 0 3.641-1.537 4.77-4.568 1.172-3.145 1.546-7.133 1.653-9.924l.003-.052.045-.028c1.493-.912 3.253-1.815 5.227-2.688l.076-.034.047.069c.897 1.31 2.936 2.638 5.097 2.638 2.667 0 5.266-2.046 6.26-2.926l.131-.116.033.17c.159.8.62 1.425 1.409 1.912 1.294.797 2.311.811 3.096.028.582-.581 1.04-1.115 1.445-1.585.686-.799 1.279-1.489 2.215-2.135.404-.28.806-.17 1.07.281 1.601 2.72 3.438 4.232 5.313 4.372.56.04 1.016-.123 1.088-.375.048-.17-.092-.372-.388-.554-1.196-.74-2.228-2.233-3.156-4.564-.316-.792-.738-1.295-2.167-1.849a2.046 2.046 0 0 0-.743-.155c-.482 0-.821.229-1.149.45l-.086.058c-.987.656-2.172 1.88-3.038 2.774-.393.406-.732.757-.952.948-.377.328-.658.392-.827.217-.128-.132-.147-.366-.142-.54.05-1.33.426-2.678 1.22-4.372.136-.294.155-.566.053-.804-.137-.326-.5-.599-1.046-.79-.347-.12-.639-.179-.892-.179-.655 0-.96.417-1.217 1.044-.464 1.135-.714 2.035-.953 3.437l-.005.032-.024.023c-2.377 2.31-4.481 3.483-6.251 3.483-1.384 0-2.285-.798-2.471-2.187l-.01-.075.068-.03c1.955-.877 3.892-1.841 4.812-2.958.672-.816.544-1.548.32-2.02-.42-.88-1.55-1.572-2.57-1.572-1.292 0-6.041 2.376-6.05 6.527v.064l-.06.026c-1.142.495-2.857 1.256-4.552 2.143l-.167.087.023-.187c.285-2.377.964-4.29 1.283-4.971.213-.456.27-.764.181-1.001-.092-.247-.341-.443-.863-.677-.655-.297-1.322-.226-1.802.177l-.088.077-.061-.1c-.006-.01-.6-.937-1.814-.937-2.5 0-6.18 4.279-6.45 5.965-.07.44.073.872.425 1.282.669.78 2.046 1.36 3.105 1.297 1.057-.063 2.139-.816 2.695-1.49l.16-.196zm69.8.095l-.067.144c-.552 1.156-1.078 2.425-1.637 3.765-1.558 3.752-3.324 8.005-6.606 12.276-.151.197-.197.377-.131.51.062.127.23.204.444.204.23 0 .494-.087.74-.244 2.197-1.39 5.32-6.048 8.569-12.779 2.45-5.071 4.038-6.757 5.313-8.11.154-.164.305-.324.45-.483.198-.215.273-.422.225-.614-.082-.314-.492-.613-1.155-.841-.917-.315-1.614-.196-2.12.368l-.06.067c-1.66 1.875-3.847 4.108-4.817 4.108a.797.797 0 0 1-.61-.253c-.468-.504-.377-1.624-.31-2.442.01-.14.021-.27.027-.382.037-.701-.354-1.061-1.35-1.24-.76-.137-3.274-.296-5.196-.389l-.115-.006.022-.112c.546-2.867 1.439-5.663 2.221-6.962.296-.488.514-.885.4-1.16-.095-.227-.432-.407-1.057-.565a2.84 2.84 0 0 0-.696-.096c-1.016 0-1.322.754-1.528 1.253a34.22 34.22 0 0 0-2.055 7.45l-.014.087-.088-.002c-.51-.015-.937-.02-1.236-.015-.345.004-.555.07-.642.203-.08.123-.06.322.056.593.18.416.626 1.155 1.577 1.423l.078.022-.005.081a25.197 25.197 0 0 0-.067 1.67c-.021 2.77.815 4.404 2.42 4.723a1 1 0 0 0 .212.02c.211 0 .49-.057.582-.213.055-.094.037-.223-.054-.381-.801-1.405-.68-4.044-.438-6.01l.008-.075.076-.012c1.053-.154 2.379-.332 3.295-.35h.028c.21 0 .359.049.452.147.122.128.13.316.117.498-.025.419-.033 1.862.974 2.927.785.83 2 1.237 3.608 1.2l.16-.003zm-73.45 15.652c-.383 0-.705-.17-.932-.492-.35-.495-.767-1.79.366-4.905.736-2.02 2.094-3.847 4.152-5.584l.17-.145-.006.222c-.18 6.42-1.722 10.904-3.75 10.904zm143.836-16.81l-.018.118c-.495 3.075-.707 5.986-.57 7.784.187 2.403.952 3.1 1.512 3.413.457.257.911.336 1.069.16.078-.087.106-.237.08-.449-.34-2.909-.076-7.052.721-11.37l.012-.065.066-.014a47.901 47.901 0 0 0 4.01-1.014l.148-.045-.02.152c-.123.968.311 2.095 1.194 3.09 1.651 1.863 4.484 2.932 7.77 2.932 1.92 0 3.586-.746 4.155-1.276.244-.227.323-.481.273-.606-.043-.11-.2-.136-.428-.072a13.227 13.227 0 0 1-3.551.51c-2.612 0-4.69-.887-5.701-2.432l-.088-.135.162-.017c2.005-.23 4.446-1.374 4.834-2.269.343-.784.078-1.456-.205-1.884-.614-.93-1.891-1.605-3.037-1.605-1.438 0-3.206.744-4.293 1.808l-.02.02-.026.006c-1.6.398-3.228.71-4.708.905l-.143.019.032-.139c.643-2.875 1.454-5.463 2.345-7.486.285-.648.568-1.055 1.096-1.083.494-.036.875.285 1.096.892.073.201.214.331.362.331.169 0 .342-.16.488-.454.299-.597.06-1.87-1.008-2.58-.655-.438-1.271-.659-1.832-.659-.701 0-1.303.357-1.74 1.033-1.451 2.254-2.741 5.903-3.632 10.276l-.016.078-.13.001c-.615 0-1.155-.037-1.606-.11-.445-.073-.74-.007-.846.19-.141.265.018.772.439 1.394.401.595.95.669 1.635.656l.119-.003zm-53.107-.797l-.024.147c-.435 2.636-.65 5.273-.576 7.055.086 2.032.488 3.237 1.228 3.687.192.117.454.19.683.19.145 0 .344-.028.469-.167.1-.11.138-.276.114-.494-.276-2.504.086-6.678.946-10.897l.014-.067.069-.01c1.44-.23 2.96-.42 4.394-.542l.235-.02-.148.182c-.295.36-.44.887-.44 1.613 0 1.62 2.132 3.976 5.47 3.976 1.974 0 4.357-1.71 4.357-3.832 0-2.714-2.285-4.538-4.42-4.538-.87 0-1.773.398-2.477 1.092l-.029.03h-.043a105.54 105.54 0 0 0-1.581-.012c-1.753 0-3.375.045-4.824.132l-.135.008.032-.13c.733-2.998 1.608-5.479 2.531-7.174.369-.674.618-.985 1.123-1.039.037-.004.074-.006.11-.006.488 0 .885.349 1.184 1.034.058.132.184.274.362.274.175 0 .365-.129.55-.372.237-.311.309-.807.192-1.323-.165-.718-.66-1.334-1.356-1.69-.647-.333-1.234-.5-1.742-.5-.74 0-1.352.346-1.873 1.06-2.087 2.858-3.303 7.047-3.958 10.058l-.014.067-.071.01c-2.265.283-4.084.724-5.406 1.308-.354.158-.544.336-.56.533-.023.26.247.586.778.942.83.556 1.49.635 2.156.271.472-.26 1.35-.545 2.535-.821l.145-.035zm45.395.953l-.014.314c-.078 1.878.434 3.182 1.568 3.986.278.197.624.32.902.32.168 0 .295-.045.358-.128.06-.077.068-.192.028-.341-.446-1.612-.273-3.719.47-5.78.381-1.056.544-1.683-.55-2.288-.833-.464-1.434-.478-1.768-.02a2.14 2.14 0 0 0-.101.147l-.068.1c-1.92 2.79-4.87 6.049-6.858 6.049-.315 0-.58-.114-.79-.34-.424-.457-.584-1.336-.48-2.612.27-3.251 1.69-7.955 3.169-10.486.37-.634.474-1.023.338-1.264-.126-.221-.49-.338-1.085-.348h-.068c-1.395 0-1.913.72-2.238 1.428-1.24 2.72-2.735 6.866-2.81 11.184-.02 1.14.371 2.121 1.16 2.92 1.051 1.062 2.455 1.448 3.142 1.448 2.09 0 4.345-2.531 5.501-4.039l.194-.25zM52.786 48c-.687 0-1.017.454-1.098.878-.13.687-.371 1.73-.65 2.938-.728 3.142-1.724 7.444-1.973 10.518-.314 3.9.558 4.732 1.548 5.052.235.078.435.054.555-.066.109-.108.162-.297.16-.559-.03-3.339 2.22-12.428 3.382-16.161.439-1.407.058-1.894-.798-2.3-.42-.198-.8-.3-1.126-.3zm131.917 10.754c-.219 0-.508.039-.646.225-.096.127-.107.314-.034.555.363 1.193-.103 3.392-.38 4.709-.043.2-.08.378-.11.529-.21 1.069.286 1.358.972 1.758.32.188.654.29.942.29.285 0 .658-.104.817-.6.774-2.434 2.967-6.56 8.94-6.828.163-.006.28-.11.31-.276.044-.23-.091-.539-.49-.71-.388-.169-.896-.254-1.507-.254-1.913 0-4.413.827-6.224 2.058l-.112.076-.04-.13c-.058-.189-.973-1.103-1.858-1.324-.201-.05-.402-.078-.58-.078zM58.478 56.36c-.615 0-.91.415-1.184 1.087-.56 1.37-1.287 4.252-1.584 6.293-.189 1.283.168 1.738 1.091 2.334 1.055.681 2.129.712 2.72.061.255-.28.52-.58.793-.884 1.203-1.348 2.566-2.88 3.749-3.727.284-.202.606-.073.74.282 1.404 3.748 3.707 4.307 4.955 4.307.175 0 .354-.01.529-.032.455-.056.72-.375.703-.638-.01-.172-.138-.27-.35-.27h-.062c-1.872 0-2.255-1.85-2.787-4.412l-.055-.264c-.18-.866-.804-1.518-1.806-1.887a2.17 2.17 0 0 0-.76-.153c-.515 0-.867.25-1.206.493-.962.684-2.303 2.057-3.38 3.16-.998 1.023-1.487 1.517-1.674 1.56l-.144.033.023-.146c.162-1.033.74-3.406 1.604-5.38.115-.26.126-.51.032-.742-.135-.337-.492-.632-1.028-.854-.354-.148-.663-.221-.919-.221zm63.844 5.82l.01.216c.107 2.43 1.772 3.65 2.564 3.86.464.122.852.06.967-.143.06-.1.043-.236-.042-.379-1.103-1.86-.428-5.339-.348-5.73.244-1.179-.377-1.559-1.035-1.96l-.031-.017c-.304-.187-.62-.29-.894-.29-.2 0-.464.057-.58.322-.913 2.109-3.849 5.222-5.277 5.222-.424 0-.737-.153-.93-.456-.482-.755-.065-2.271.486-3.438.358-.758.166-1.236-.686-1.706-.417-.229-.813-.35-1.145-.35-.425 0-.727.19-.897.564-.256.564-.769 1.992-1.063 3.77-.133.802.14 1.65.77 2.386.746.873 1.873 1.458 2.806 1.458 1.222 0 2.913-1.04 5.167-3.179l.158-.15zm7.865-4.841c-.553 0-.892.388-1.135 1.3-.668 2.515-.564 4.734.284 6.084.44.698 1.044 1.127 1.8 1.276.43.086.778.018.896-.162.07-.109.04-.229.004-.31-.64-1.398-.824-3.86.057-5.862.447-1.012.23-1.56-.803-2.021-.46-.207-.82-.305-1.103-.305zm46.193 7.579c-.572 0-1.068-.219-1.395-.614-.347-.42-.477-1-.36-1.593.203-1.031 1.43-2.291 2.571-2.291.486 0 .911.18 1.23.52.425.454.586 1.097.557 1.503-.098 1.318-1.314 2.475-2.603 2.475zM74.833 63.594c-.222 0-.342-.098-.404-.18-.12-.161-.138-.411-.05-.704.277-.926 2.3-3.905 3.247-3.905.26 0 .503.142.67.39.238.355.273.846.09 1.284-.59 1.411-2.306 3.115-3.553 3.115zm152.854-1.518l-.011-.104c-.144-1.326.81-2.141 1.75-2.462.154-.052.31-.077.468-.077.417 0 .766.18.911.472.135.268.075.592-.17.912-.59.774-2.035 1.11-2.844 1.241l-.104.018zM88.871 60.908l.043-.202c.294-1.367 1.008-2.428 2.01-2.99.15-.084.325-.128.505-.128.359 0 .672.179.777.446.07.178.107.548-.428 1.04-.61.558-1.499 1.128-2.72 1.74l-.187.094zM214.31 50.592c-.3 0-.54.08-.642.213-.2.261-.089.622.039.878.48.956 1.876 1.967 2.719 1.967.244 0 .429-.086.548-.252.246-.346-.03-1.452-.808-2.062-.602-.473-1.279-.744-1.856-.744zm-83.297-.074c-.218 0-.386.074-.5.22-.213.274-.229.598-.05.961.402.809 1.704 1.605 2.633 1.605.325 0 .567-.097.72-.288.099-.124.012-.352-.05-.478-.41-.846-1.875-2.02-2.753-2.02z"/>
    </g>
</svg>
