<svg xmlns="http://www.w3.org/2000/svg" width="47" height="40" viewBox="0 0 47 40">
    <path fill="#FFF" fill-rule="evenodd" d="M42.214 11.388c0-.443-.02-.867-.04-1.31 1.9-1.383 3.527-3.136 4.826-5.134a18.515 18.515 0 0 1-5.54 1.501A9.769 9.769 0 0 0 45.7.965a18.483 18.483 0 0 1-6.12 2.324C37.82 1.31 35.32.04 32.549.001c-5.326-.074-9.646 4.386-9.646 9.984 0 .787.075 1.555.248 2.304-8.019-.517-15.126-4.653-19.872-10.9A10.51 10.51 0 0 0 1.96 6.504c0 3.555 1.706 6.71 4.3 8.556a9.305 9.305 0 0 1-4.38-1.329v.138c0 4.957 3.333 9.093 7.752 10.077a9.46 9.46 0 0 1-2.54.345 9.397 9.397 0 0 1-1.82-.212c1.22 4.076 4.787 7.04 9.007 7.134-3.313 2.712-7.454 4.346-11.972 4.327-.774 0-1.547-.06-2.306-.153C4.265 38.311 9.339 40 14.784 40c17.725 0 27.43-15.325 27.43-28.612z"/>
</svg>
